<?xml version="1.0" encoding="utf-8"?>
<!-- Generator: Adobe Illustrator 19.1.0, SVG Export Plug-In . SVG Version: 6.00 Build 0)  -->
<svg version="1.1" id="Layer_1" xmlns="http://www.w3.org/2000/svg" xmlns:xlink="http://www.w3.org/1999/xlink" x="0px" y="0px"
	 viewBox="0 0 215 70" style="enable-background:new 0 0 215 70;" xml:space="preserve">
<style type="text/css">
	.st0{fill:#B1B3B5;}
	.st1{fill:#FFFFFF;}
</style>
<g>
	<g>
		<g>
			<g>
				<g>
					<g>
						<path class="st0" d="M197.4,1.5H17.6c-0.6,0-1.2,0-1.8,0c-0.5,0-1,0-1.5,0c-1.1,0-2.2,0.1-3.4,0.3C9.7,2,8.7,2.4,7.7,2.9
							c-1,0.5-1.9,1.2-2.7,2C4.2,5.7,3.5,6.6,3,7.6c-0.5,1-0.9,2.1-1,3.2c-0.2,1.1-0.3,2.2-0.3,3.4c0,0.5,0,1,0,1.5
							c0,0.6,0,1.2,0,1.8v35c0,0.6,0,1.2,0,1.8c0,0.5,0,1,0,1.5c0,1.1,0.1,2.2,0.3,3.4c0.2,1.1,0.5,2.2,1,3.2c0.5,1,1.2,1.9,2,2.7
							c0.8,0.8,1.7,1.5,2.7,2c1,0.5,2.1,0.9,3.2,1.1c1.1,0.2,2.2,0.3,3.4,0.3c0.5,0,1,0,1.5,0c0.6,0,1.2,0,1.8,0h179.8
							c0.6,0,1.2,0,1.8,0c0.5,0,1,0,1.5,0c1.1,0,2.2-0.1,3.3-0.3c1.1-0.2,2.2-0.5,3.2-1.1c1-0.5,1.9-1.2,2.7-2
							c0.8-0.8,1.5-1.7,2-2.7c0.5-1,0.8-2.1,1-3.2c0.2-1.1,0.3-2.2,0.3-3.4c0-0.5,0-1,0-1.5c0-0.6,0-1.2,0-1.8v-35
							c0-0.6,0-1.2,0-1.8c0-0.5,0-1,0-1.5c0-1.1-0.1-2.2-0.3-3.4c-0.2-1.1-0.5-2.2-1-3.2c-0.5-1-1.2-1.9-2-2.7
							c-0.8-0.8-1.7-1.5-2.7-2c-1-0.5-2.1-0.9-3.2-1c-1.1-0.2-2.2-0.3-3.3-0.3c-0.5,0-1,0-1.5,0C198.6,1.5,198,1.5,197.4,1.5
							L197.4,1.5z"/>
						<path d="M15.8,67c-0.5,0-1,0-1.5,0c-0.9,0-2-0.1-3.1-0.3c-1-0.2-1.9-0.5-2.8-0.9c-0.9-0.4-1.7-1-2.3-1.7
							c-0.7-0.7-1.3-1.5-1.7-2.3C3.9,60.9,3.6,60,3.4,59c-0.2-1.1-0.3-2.3-0.3-3.1c0-0.4,0-1.5,0-1.5V15.7c0,0,0-1.2,0-1.5
							c0-0.9,0.1-2,0.3-3.1c0.2-1,0.5-1.9,0.9-2.8c0.4-0.9,1-1.7,1.7-2.3c0.7-0.7,1.5-1.3,2.3-1.7c0.9-0.4,1.8-0.7,2.8-0.9
							C12.2,3.1,13.4,3,14.3,3l1.5,0h183.5l1.5,0c0.9,0,2,0.1,3.1,0.3c1,0.2,1.9,0.5,2.8,0.9c0.9,0.4,1.6,1,2.3,1.7
							c0.7,0.7,1.3,1.5,1.7,2.4c0.4,0.9,0.7,1.8,0.9,2.8c0.2,1.1,0.3,2.1,0.3,3.2c0,0.5,0,1,0,1.5c0,0.6,0,1.2,0,1.8v35
							c0,0.6,0,1.2,0,1.8c0,0.5,0,1,0,1.6c0,1-0.1,2.1-0.3,3.1c-0.2,1-0.5,1.9-0.9,2.8c-0.5,0.9-1,1.7-1.7,2.3
							c-0.7,0.7-1.5,1.3-2.3,1.7c-0.9,0.4-1.8,0.7-2.8,0.9c-1.1,0.2-2.2,0.2-3.1,0.3c-0.5,0-1,0-1.5,0l-1.8,0L15.8,67z"/>
					</g>
				</g>
			</g>
		</g>
	</g>
	<g>
		<g>
			<g id="XMLID_20_">
				<g id="XMLID_22_">
					<g id="XMLID_23_">
						<path id="XMLID_25_" class="st1" d="M43.1,35.5c0-4.6,3.8-6.8,3.9-6.9c-2.2-3.1-5.5-3.6-6.7-3.6c-2.8-0.3-5.5,1.7-7,1.7
							c-1.5,0-3.7-1.7-6-1.6c-3.1,0-5.9,1.8-7.5,4.6C16.6,35.2,19,43.4,22.1,48c1.6,2.2,3.4,4.7,5.7,4.6c2.3-0.1,3.2-1.5,6-1.5
							c2.8,0,3.6,1.5,6,1.4c2.5,0,4.1-2.2,5.6-4.5c1.8-2.5,2.5-5,2.5-5.2C47.9,42.8,43.1,41,43.1,35.5z"/>
						<path id="XMLID_24_" class="st1" d="M38.5,22c1.2-1.6,2.1-3.7,1.9-5.8c-1.8,0.1-4.1,1.2-5.4,2.8c-1.2,1.3-2.2,3.6-1.9,5.6
							C35.1,24.7,37.2,23.5,38.5,22z"/>
					</g>
				</g>
			</g>
		</g>
		<g id="XMLID_1_">
			<g>
				<path class="st1" d="M61.3,26.1v-8.6h-3.1v-1.4H66v1.4h-3.1v8.6H61.3z"/>
				<path class="st1" d="M73.2,24.1c-0.3,1.4-1.5,2.2-3.3,2.2c-2.2,0-3.5-1.5-3.5-3.9c0-2.4,1.4-3.9,3.5-3.9c2.1,0,3.4,1.4,3.4,3.8
					v0.5H68v0.1c0,1.3,0.8,2.2,2,2.2c0.9,0,1.5-0.3,1.8-0.9H73.2z M68,21.7h3.8c0-1.2-0.8-2-1.9-2C68.8,19.7,68.1,20.5,68,21.7z
					 M69,17.3l1.7-2.4h1.7l-1.9,2.4H69z"/>
				<path class="st1" d="M75.4,15.7h1.5v10.5h-1.5V15.7z"/>
				<path class="st1" d="M85.7,24.1c-0.3,1.4-1.5,2.2-3.3,2.2c-2.2,0-3.5-1.5-3.5-3.9c0-2.4,1.4-3.9,3.5-3.9c2.1,0,3.4,1.4,3.4,3.8
					v0.5h-5.3v0.1c0,1.3,0.8,2.2,2,2.2c0.9,0,1.5-0.3,1.8-0.9H85.7z M80.4,21.7h3.8c0-1.2-0.8-2-1.9-2
					C81.3,19.7,80.5,20.5,80.4,21.7z M81.5,17.3l1.7-2.4H85L83,17.3H81.5z"/>
				<path class="st1" d="M92.7,21.1c-0.2-0.7-0.8-1.3-1.8-1.3c-1.2,0-2,1-2,2.6c0,1.6,0.8,2.6,2,2.6c0.9,0,1.6-0.4,1.8-1.2h1.4
					c-0.2,1.5-1.4,2.6-3.2,2.6c-2.2,0-3.5-1.5-3.5-3.9c0-2.4,1.3-3.9,3.5-3.9c1.9,0,3,1.1,3.2,2.6H92.7z"/>
				<path class="st1" d="M96.1,15.7h1.5v4.2h0.1c0.4-0.8,1.2-1.4,2.3-1.4c1.6,0,2.6,1,2.6,2.8v4.9h-1.5v-4.5c0-1.2-0.6-1.8-1.6-1.8
					c-1.2,0-1.9,0.8-1.9,1.9v4.4h-1.5V15.7z"/>
				<path class="st1" d="M104.5,24c0-1.4,1-2.1,2.8-2.3l2-0.1V21c0-0.8-0.5-1.2-1.5-1.2c-0.8,0-1.4,0.3-1.6,0.8h-1.4
					c0.2-1.3,1.4-2.1,3.1-2.1c1.9,0,3,0.9,3,2.5v5.1h-1.4v-1.1h-0.1c-0.4,0.8-1.3,1.2-2.3,1.2C105.5,26.3,104.5,25.4,104.5,24z
					 M109.3,23.4v-0.6l-1.8,0.1c-1,0.1-1.5,0.4-1.5,1.1c0,0.7,0.6,1.1,1.4,1.1C108.5,25,109.3,24.3,109.3,23.4z"/>
				<path class="st1" d="M113.1,18.6h1.4v1.2h0.1c0.2-0.7,1.1-1.3,2-1.3c0.2,0,0.5,0,0.7,0.1V20c-0.1,0-0.6-0.1-0.8-0.1
					c-1.1,0-1.9,0.7-1.9,1.8v4.5h-1.5V18.6z"/>
				<path class="st1" d="M118.7,26.9h1.5c0.1,0.5,0.8,0.9,1.8,0.9c1.2,0,2-0.6,2-1.6v-1.4h-0.1c-0.5,0.8-1.3,1.3-2.3,1.3
					c-1.9,0-3.1-1.5-3.1-3.7c0-2.3,1.2-3.8,3.1-3.8c1,0,1.9,0.5,2.4,1.3h0.1v-1.2h1.4v7.6c0,1.7-1.4,2.8-3.5,2.8
					C120.1,29,118.9,28.2,118.7,26.9z M124,22.3c0-1.5-0.8-2.5-2-2.5c-1.3,0-2,1-2,2.5c0,1.5,0.7,2.5,2,2.5
					C123.2,24.7,124,23.8,124,22.3z"/>
				<path class="st1" d="M134.2,24.1c-0.3,1.4-1.5,2.2-3.3,2.2c-2.2,0-3.5-1.5-3.5-3.9c0-2.4,1.4-3.9,3.5-3.9c2.1,0,3.4,1.4,3.4,3.8
					v0.5H129v0.1c0,1.3,0.8,2.2,2,2.2c0.9,0,1.5-0.3,1.8-0.9H134.2z M129,21.7h3.8c0-1.2-0.8-2-1.9-2
					C129.8,19.7,129.1,20.5,129,21.7z"/>
				<path class="st1" d="M136.3,18.6h1.4v1.2h0.1c0.2-0.7,1.1-1.3,2-1.3c0.2,0,0.5,0,0.7,0.1V20c-0.1,0-0.6-0.1-0.8-0.1
					c-1.1,0-1.9,0.7-1.9,1.8v4.5h-1.5V18.6z"/>
				<path class="st1" d="M145.9,22.4c0-2.4,1.2-3.9,3.1-3.9c1,0,1.9,0.5,2.3,1.3h0.1v-4.1h1.5v10.5h-1.4v-1.2h-0.1
					c-0.4,0.8-1.3,1.3-2.4,1.3C147.1,26.3,145.9,24.7,145.9,22.4z M147.4,22.4c0,1.6,0.8,2.6,2,2.6c1.3,0,2-1,2-2.6
					c0-1.6-0.8-2.6-2-2.6C148.2,19.8,147.4,20.8,147.4,22.4z"/>
				<path class="st1" d="M154.9,24c0-1.4,1-2.1,2.8-2.3l2-0.1V21c0-0.8-0.5-1.2-1.5-1.2c-0.8,0-1.4,0.3-1.6,0.8h-1.4
					c0.2-1.3,1.4-2.1,3.1-2.1c1.9,0,3,0.9,3,2.5v5.1h-1.4v-1.1h-0.1c-0.4,0.8-1.3,1.2-2.3,1.2C156,26.3,154.9,25.4,154.9,24z
					 M159.8,23.4v-0.6l-1.8,0.1c-1,0.1-1.5,0.4-1.5,1.1c0,0.7,0.6,1.1,1.4,1.1C159,25,159.8,24.3,159.8,23.4z"/>
				<path class="st1" d="M163.6,18.6h1.4v1.2h0.1c0.4-0.8,1.1-1.3,2.2-1.3c1.7,0,2.6,1,2.6,2.8v4.9h-1.5v-4.5c0-1.2-0.5-1.8-1.6-1.8
					c-1.1,0-1.8,0.7-1.8,1.9v4.4h-1.5V18.6z"/>
				<path class="st1" d="M175.1,18.4c1.7,0,2.8,0.8,2.9,2.1h-1.4c-0.1-0.6-0.7-0.9-1.5-0.9c-0.8,0-1.5,0.4-1.5,1
					c0,0.5,0.4,0.7,1.2,0.9l1.3,0.3c1.4,0.3,2.1,0.9,2.1,2.1c0,1.4-1.3,2.4-3.1,2.4c-1.8,0-3-0.8-3.1-2.1h1.5
					c0.2,0.6,0.7,0.9,1.6,0.9c0.9,0,1.6-0.4,1.6-1c0-0.4-0.4-0.7-1.1-0.9l-1.3-0.3c-1.4-0.3-2.1-1-2.1-2.1
					C172.1,19.4,173.4,18.4,175.1,18.4z"/>
			</g>
		</g>
	</g>
	<g>
		<path class="st1" d="M60.5,31.8h3.1v20.8h-3.1V31.8z"/>
		<path class="st1" d="M67.4,39.4l1.7-7.6h3l-2.1,7.6H67.4z"/>
		<path class="st1" d="M83.9,46.9H76l-1.9,5.6h-3.4l7.5-20.8h3.5l7.5,20.8h-3.4L83.9,46.9z M76.8,44.3h6.3L80,35.2h-0.1L76.8,44.3z"
			/>
		<path class="st1" d="M105.4,45c0,4.7-2.5,7.7-6.3,7.7c-2.2,0-3.9-1-4.8-2.7h-0.1v7.5h-3.1V37.4h3v2.5h0.1c0.9-1.6,2.7-2.7,4.8-2.7
			C102.9,37.2,105.4,40.3,105.4,45z M102.2,45c0-3.1-1.6-5.1-4-5.1c-2.4,0-4,2.1-4,5.1c0,3.1,1.6,5.1,4,5.1
			C100.6,50.1,102.2,48.1,102.2,45z"/>
		<path class="st1" d="M122.1,45c0,4.7-2.5,7.7-6.3,7.7c-2.2,0-3.9-1-4.8-2.7h-0.1v7.5h-3.1V37.4h3v2.5h0.1c0.9-1.6,2.7-2.7,4.8-2.7
			C119.5,37.2,122.1,40.3,122.1,45z M118.9,45c0-3.1-1.6-5.1-4-5.1c-2.4,0-4,2.1-4,5.1c0,3.1,1.6,5.1,4,5.1
			C117.3,50.1,118.9,48.1,118.9,45z"/>
		<path class="st1" d="M133.1,46.8c0.2,2.1,2.2,3.4,5,3.4c2.6,0,4.5-1.4,4.5-3.2c0-1.6-1.1-2.6-3.8-3.2l-2.7-0.6
			c-3.8-0.9-5.6-2.7-5.6-5.6c0-3.6,3.1-6,7.6-6c4.4,0,7.4,2.5,7.5,6h-3.1c-0.2-2.1-1.9-3.3-4.4-3.3c-2.5,0-4.2,1.3-4.2,3.1
			c0,1.5,1.1,2.3,3.8,3l2.3,0.6c4.3,1,6,2.7,6,5.8c0,3.9-3.1,6.3-8,6.3c-4.6,0-7.7-2.4-7.9-6.1H133.1z"/>
		<path class="st1" d="M152.6,33.8v3.6h2.9v2.5h-2.9v8.4c0,1.3,0.6,1.9,1.8,1.9c0.3,0,0.8,0,1-0.1v2.4c-0.3,0.1-1,0.1-1.7,0.1
			c-3.1,0-4.3-1.2-4.3-4.1v-8.7h-2.2v-2.5h2.2v-3.6H152.6z"/>
		<path class="st1" d="M157.1,45c0-4.8,2.8-7.8,7.2-7.8c4.4,0,7.2,3,7.2,7.8c0,4.8-2.8,7.8-7.2,7.8C159.9,52.7,157.1,49.8,157.1,45z
			 M168.3,45c0-3.3-1.5-5.2-4-5.2s-4,1.9-4,5.2c0,3.3,1.5,5.2,4,5.2S168.3,48.3,168.3,45z"/>
		<path class="st1" d="M174.1,37.4h3V40h0.1c0.5-1.7,1.9-2.7,3.6-2.7c0.4,0,0.8,0.1,1.1,0.1v2.9c-0.2-0.1-0.8-0.2-1.4-0.2
			c-2,0-3.2,1.4-3.2,3.5v9h-3.1V37.4z"/>
		<path class="st1" d="M196.2,48.1c-0.4,2.8-3.1,4.6-6.5,4.6c-4.4,0-7.1-3-7.1-7.7c0-4.8,2.8-7.8,7-7.8c4.2,0,6.8,2.9,6.8,7.5v1.1
			h-10.7v0.2c0,2.6,1.6,4.3,4.1,4.3c1.7,0,3.1-0.8,3.5-2.1H196.2z M185.7,43.6h7.6c-0.1-2.3-1.6-3.8-3.7-3.8
			C187.4,39.7,185.8,41.3,185.7,43.6z"/>
	</g>
</g>
</svg>
