<?xml version="1.0" encoding="utf-8"?>
<!-- Generator: Adobe Illustrator 19.1.0, SVG Export Plug-In . SVG Version: 6.00 Build 0)  -->
<svg version="1.1" id="Layer_1" xmlns="http://www.w3.org/2000/svg" xmlns:xlink="http://www.w3.org/1999/xlink" x="0px" y="0px"
	 viewBox="0 0 454.3 187.3" style="enable-background:new 0 0 454.3 187.3;" xml:space="preserve">
<style type="text/css">
	.st0{fill:#231F20;}
	.st1{fill:#E41B82;}
</style>
<path class="st0" d="M38.2,6c1.9,0,2.9,1,2.9,2.9v5.5c0,1.9-1,2.8-2.9,2.8H26.7v41c0,1.9-0.9,2.9-2.8,2.9h-6.4c-1.9,0-2.9-1-2.9-2.9
	v-41H2.8c-1.9,0-2.8-0.9-2.8-2.8V8.9C0,7,0.9,6,2.8,6H38.2z"/>
<path class="st0" d="M73.6,44.2l-22-0.1v2.3c0,1.9,0.6,3.4,1.9,4.5c1.3,1.1,2.9,1.7,4.9,1.7c3,0,5-0.9,5.9-2.8
	c0.5-1.1,1.3-1.7,2.5-1.7h6.9c0.8,0,1.4,0.2,1.8,0.6c0.4,0.5,0.5,1.1,0.4,1.8c-0.5,3.5-2.3,6.2-5.5,8.3c-3.1,2-7.1,3-12,3
	c-5.5,0-10-1.5-13.3-4.5c-3.3-3-5-7-5-12v-9.9c0-5,1.6-9,4.9-12c3.3-3,7.7-4.5,13.1-4.5c5.5,0,9.8,1.5,13.1,4.6
	c3.3,3.1,4.9,7.1,4.9,12.1v6C76.1,43.4,75.2,44.2,73.6,44.2z M58,28.1L58,28.1c-2,0-3.5,0.6-4.8,1.7c-1.2,1.1-1.8,2.6-1.8,4.4v2.1
	h13v-2.1c0-1.9-0.6-3.4-1.8-4.4C61.6,28.6,60,28.1,58,28.1z M55.7,15.8L55.7,15.8c-1,0-1.6-0.3-2-0.9c-0.3-0.6-0.3-1.3,0.2-2.1
	L58.1,5c0.6-1.3,1.6-1.9,3-1.9h7.1c1.1,0,1.8,0.3,2,1c0.3,0.6,0,1.4-0.7,2.2l-7,8.1c-0.8,0.9-1.8,1.4-3,1.4H55.7z"/>
<path class="st0" d="M95,61L95,61c-3.6,0-6.6-1-8.9-3.1c-2.3-2.1-3.4-4.9-3.4-8.3V6.1c0-1.7,0.8-2.5,2.5-2.6h6.4
	c1.7,0,2.5,0.9,2.5,2.6v40.4c0,1.2,0.3,2.2,1,2.9c0.7,0.7,1.6,1,2.9,1h0.9c1,0,1.6,0.5,1.6,1.6v6.4c0,1.7-0.8,2.5-2.5,2.5H95z"/>
<path class="st0" d="M137.8,44.2l-22-0.1v2.3c0,1.9,0.6,3.4,1.9,4.5c1.3,1.1,2.9,1.7,4.9,1.7c3,0,5-0.9,5.9-2.8
	c0.5-1.1,1.3-1.7,2.5-1.7h6.9c0.8,0,1.4,0.2,1.8,0.6c0.4,0.5,0.5,1.1,0.4,1.8c-0.5,3.5-2.3,6.2-5.5,8.3c-3.1,2-7.1,3-12,3
	c-5.5,0-10-1.5-13.3-4.5c-3.3-3-5-7-5-12v-9.9c0-5,1.6-9,4.9-12c3.3-3,7.7-4.5,13.1-4.5s9.8,1.5,13.1,4.6c3.3,3.1,4.9,7.1,4.9,12.1
	v6C140.3,43.4,139.5,44.2,137.8,44.2z M122.3,28.1L122.3,28.1c-2,0-3.5,0.6-4.8,1.7c-1.2,1.1-1.8,2.6-1.8,4.4v2.1h13v-2.1
	c0-1.9-0.6-3.4-1.8-4.4C125.8,28.6,124.2,28.1,122.3,28.1z M119.9,15.8L119.9,15.8c-1,0-1.6-0.3-2-0.9c-0.3-0.6-0.3-1.3,0.2-2.1
	l4.2-7.7c0.6-1.3,1.6-1.9,3-1.9h7.1c1.1,0,1.8,0.3,2,1c0.3,0.6,0,1.4-0.7,2.2l-7,8.1c-0.8,0.9-1.8,1.4-3,1.4H119.9z"/>
<path class="st0" d="M163.5,62L163.5,62c-5.5,0.1-9.8-1.4-12.9-4.4c-3.2-3-4.8-7-4.8-11.9V35.5c0-5,1.6-9,4.9-11.9
	c3.2-3,7.5-4.5,12.9-4.5c5.3,0,9.5,1.3,12.7,4c3.3,2.6,4.9,6.3,4.9,10.9c0,1.8-0.8,2.6-2.4,2.6h-6.5c-1.4,0-2.2-0.6-2.5-1.8
	c-0.4-3.4-2.5-5.1-6.3-5.1c-1.8,0-3.3,0.5-4.5,1.6c-1.1,1.1-1.7,2.5-1.7,4.2v10c0,1.8,0.6,3.2,1.7,4.2c1.1,1.1,2.6,1.6,4.5,1.6
	c3.7,0,5.8-1.7,6.3-5.1c0.3-1.2,1.1-1.8,2.5-1.8h6.5c1.5,0,2.4,0.9,2.4,2.7c0,4.6-1.6,8.2-4.9,10.9C173,60.7,168.7,62,163.5,62z"/>
<path class="st0" d="M211,18.9l0,0.1c3.6,0,6.6,1.1,8.9,3.3c2.3,2.2,3.4,5.1,3.4,8.7v27.5c0,1.7-0.9,2.5-2.6,2.5h-6.4
	c-1.7,0-2.5-0.8-2.6-2.5v-23c0-1.8-0.5-3.2-1.6-4.2c-1.1-1-2.5-1.6-4.3-1.6c-1.9,0-3.5,0.5-4.7,1.6c-1.2,1.1-1.8,2.4-1.8,4v23.1
	c0,1.7-0.9,2.5-2.6,2.5h-6.4c-1.7,0-2.5-0.8-2.5-2.5V6.1c0-1.7,0.8-2.5,2.5-2.6h6.4c1.7,0,2.5,0.9,2.6,2.6v19.6h0.6
	c0.8-2,2.2-3.7,4.2-4.9C206.1,19.6,208.4,18.9,211,18.9z"/>
<path class="st0" d="M247.4,18.9l-0.1,0.1c5.3,0,9.6,1.3,12.7,3.8c3.2,2.5,4.7,5.9,4.7,10.1v25.6c0,1.7-0.9,2.5-2.6,2.5h-6
	c-1.7,0-2.5-0.8-2.6-2.5v-2.6H253c-0.9,2-2.2,3.5-4.1,4.5c-2,1.1-4.3,1.6-6.9,1.6c-4,0-7.2-1.1-9.7-3.3c-2.4-2.2-3.6-5.1-3.6-8.9
	c0-3.7,1.2-6.7,3.7-9c2.5-2.3,5.7-3.4,9.8-3.4h11.2v-3.8c0-1.6-0.6-3-1.7-4c-1.1-1-2.6-1.5-4.5-1.5c-3.1,0-5,1.1-5.7,3.3
	c-0.3,1.3-1.1,2-2.4,2h-6.3c-1.7,0-2.5-0.9-2.6-2.6c0-3.6,1.6-6.4,4.9-8.7C238.4,20.1,242.5,18.9,247.4,18.9z M246.3,53.4
	L246.3,53.4c2.1,0.1,3.8-0.4,5.1-1.2s1.9-2,1.9-3.4v-3.5h-8.4c-1.4,0-2.6,0.4-3.4,1.1s-1.3,1.7-1.3,2.9c0,1.2,0.6,2.2,1.7,3
	S244.4,53.4,246.3,53.4z"/>
<path class="st0" d="M294.1,19L294.1,19c0.9-0.1,1.5,0.1,2,0.6c0.5,0.5,0.7,1.1,0.7,2v6.7c0,1.7-0.8,2.5-2.5,2.5
	c-3.4,0-5.9,0.8-7.5,2.4c-1.7,1.6-2.5,3.9-2.5,6.9v18.4c0,1.7-0.9,2.5-2.6,2.5h-6.4c-1.7,0-2.5-0.8-2.5-2.5v-36
	c0-1.7,0.8-2.5,2.5-2.5h6.4c1.7,0,2.5,0.8,2.6,2.5v4.4h0.6C286.3,22,289.4,19.3,294.1,19z"/>
<path class="st0" d="M333.8,19.9l-0.1,0.1c1.7,0,2.5,0.8,2.5,2.5v40.1c0,4.2-1.6,7.6-4.8,10.2c-3.2,2.6-7.5,3.9-12.9,3.9
	c-4.8,0-8.8-1-11.9-3c-3.1-2-4.9-4.7-5.4-8.2c-0.1-0.8,0-1.5,0.4-2c0.4-0.5,1-0.7,1.7-0.7h6.7c1,0,1.8,0.5,2.4,1.4
	c0.7,2.5,2.7,3.8,6,3.8c2,0,3.5-0.6,4.7-1.7c1.1-1.1,1.7-2.6,1.7-4.4v-8.7h-0.7c-0.8,2-2.2,3.5-4.1,4.7c-2,1.2-4.3,1.8-6.8,1.8
	c-3.8,0-6.9-1.2-9.3-3.7c-2.4-2.5-3.6-5.7-3.6-9.7v-14c0-4,1.2-7.2,3.6-9.7c2.4-2.5,5.5-3.7,9.4-3.7c2.6,0,4.9,0.6,6.8,1.8
	c1.9,1.2,3.3,2.8,4.1,4.8h0.7v-3.2c0-1.7,0.8-2.5,2.5-2.5H333.8z M318.1,49.1L318.1,49.1c2,0,3.6-0.5,4.8-1.7
	c1.2-1.1,1.8-2.6,1.8-4.3v-7.3c0-1.7-0.6-3.1-1.8-4.2c-1.2-1.1-2.8-1.7-4.8-1.7c-1.9,0-3.5,0.5-4.6,1.6c-1.2,1.1-1.8,2.6-1.8,4.4V43
	c0,1.9,0.6,3.4,1.8,4.4C314.6,48.6,316.2,49.1,318.1,49.1z"/>
<path class="st0" d="M376.6,44.2l-22-0.1v2.3c0,1.9,0.6,3.4,1.9,4.5c1.3,1.1,2.9,1.7,4.9,1.7c3,0,5-0.9,5.9-2.8
	c0.5-1.1,1.3-1.7,2.5-1.7h6.9c0.8,0,1.4,0.2,1.8,0.6c0.4,0.5,0.5,1.1,0.4,1.8c-0.5,3.5-2.3,6.2-5.5,8.3c-3.1,2-7.1,3-12,3
	c-5.5,0-10-1.5-13.3-4.5c-3.3-3-5-7-5-12v-9.9c0-5,1.6-9,4.9-12c3.3-3,7.7-4.5,13.1-4.5c5.5,0,9.8,1.5,13.1,4.6
	c3.3,3.1,4.9,7.1,4.9,12.1v6C379.1,43.4,378.3,44.2,376.6,44.2z M361.1,28.1L361.1,28.1c-2,0-3.5,0.6-4.8,1.7
	c-1.2,1.1-1.8,2.5-1.8,4.4v2.1h13v-2.1c0-1.9-0.6-3.4-1.8-4.4C364.6,28.7,363,28.1,361.1,28.1z"/>
<path class="st0" d="M386.6,61c-1.7,0-2.5-0.8-2.6-2.5v-4.3c0-1.1,0.4-2.2,1.2-3.1l16-20v-0.6H387c-1.7,0-2.5-0.8-2.6-2.5v-5.4
	c0-1.7,0.9-2.5,2.6-2.5h27.6c1.7,0,2.5,0.8,2.5,2.5v4.3c0,1.1-0.4,2.1-1.2,3.1l-16,20v0.6h15c1.7,0,2.5,0.8,2.6,2.5v5.4
	c0,1.7-0.9,2.5-2.6,2.5H386.6z"/>
<g>
	<path class="st0" d="M12.3,137.9L12.3,137.9c-3.6,0-6.6-1-8.9-3.1c-2.3-2.1-3.4-4.9-3.4-8.3V83c0-1.7,0.8-2.5,2.5-2.6h6.4
		c1.7,0,2.5,0.9,2.5,2.6v40.4c0,1.2,0.3,2.2,1,2.9c0.7,0.7,1.6,1,2.9,1h0.9c1,0,1.6,0.5,1.6,1.6v6.4c0,1.7-0.8,2.5-2.5,2.5H12.3z"/>
	<path class="st0" d="M23.2,103.8c-1.6,0-2.5-0.8-2.6-2.4l-1.1-15.1v-0.9c0-1.7,0.8-2.5,2.5-2.5h7.1c1.7,0,2.5,0.8,2.6,2.5v0.9
		l-1.1,15.1c-0.1,1.6-0.9,2.4-2.5,2.4H23.2z"/>
	<path class="st1" d="M53.5,95.9L53.4,96c5.3,0,9.6,1.3,12.7,3.8c3.2,2.5,4.7,5.9,4.7,10.1v25.6c0,1.7-0.9,2.5-2.6,2.5h-6
		c-1.7,0-2.5-0.8-2.6-2.5v-2.6H59c-0.9,2-2.2,3.5-4.1,4.5c-2,1.1-4.3,1.6-6.9,1.6c-4,0-7.2-1.1-9.7-3.3c-2.4-2.2-3.6-5.1-3.6-8.9
		c0-3.7,1.2-6.7,3.7-9c2.5-2.3,5.7-3.4,9.8-3.4h11.2v-3.8c0-1.6-0.6-3-1.7-4c-1.1-1-2.6-1.5-4.5-1.5c-3.1,0-5,1.1-5.7,3.3
		c-0.3,1.3-1.1,2-2.4,2h-6.3c-1.7,0-2.5-0.9-2.6-2.6c0-3.6,1.6-6.4,4.9-8.7C44.4,97,48.5,95.9,53.5,95.9z M52.4,130.3L52.4,130.3
		c2.1,0.1,3.8-0.4,5.1-1.2c1.3-0.9,1.9-2,1.9-3.4v-3.5h-8.4c-1.4,0-2.6,0.4-3.4,1.1c-0.9,0.7-1.3,1.7-1.3,2.9c0,1.2,0.6,2.2,1.7,3
		C49,129.9,50.5,130.3,52.4,130.3z"/>
	<path class="st1" d="M101.8,95.9l-0.1,0.1c3.9,0,7,1.2,9.4,3.7c2.4,2.5,3.6,5.7,3.6,9.7v16.3c0,4-1.2,7.2-3.6,9.7
		c-2.4,2.5-5.5,3.7-9.4,3.7c-2.6,0-4.8-0.6-6.8-1.9c-1.9-1.2-3.3-2.9-4.1-4.9h-0.6v18c0,1.7-0.9,2.5-2.6,2.6h-6.4
		c-1.7,0-2.5-0.9-2.5-2.6V99.4c0-1.7,0.8-2.5,2.5-2.5h6.4c1.7,0,2.5,0.8,2.6,2.5v3.2h0.6c0.9-2.1,2.2-3.7,4.1-4.9
		C96.9,96.5,99.1,95.9,101.8,95.9z M103.1,122.2l-0.1-9.3c0-1.9-0.6-3.4-1.8-4.4s-2.7-1.6-4.6-1.6c-2,0-3.6,0.6-4.8,1.7
		c-1.2,1.1-1.8,2.6-1.8,4.2v9.5c0,1.7,0.6,3.1,1.8,4.2c1.2,1.1,2.8,1.7,4.8,1.7c1.9,0,3.5-0.5,4.6-1.6
		C102.6,125.5,103.1,124,103.1,122.2z"/>
	<path class="st1" d="M145,95.9l-0.1,0.1c3.9,0,7,1.2,9.4,3.7c2.4,2.5,3.6,5.7,3.6,9.7v16.3c0,4-1.2,7.2-3.6,9.7
		c-2.4,2.5-5.5,3.7-9.4,3.7c-2.6,0-4.8-0.6-6.8-1.9c-1.9-1.2-3.3-2.9-4.1-4.9h-0.6v18c0,1.7-0.9,2.5-2.6,2.6h-6.4
		c-1.7,0-2.5-0.9-2.5-2.6V99.4c0-1.7,0.8-2.5,2.5-2.5h6.4c1.7,0,2.5,0.8,2.6,2.5v3.2h0.6c0.9-2.1,2.2-3.7,4.1-4.9
		C140.1,96.5,142.4,95.9,145,95.9z M146.4,122.2l-0.1-9.3c0-1.9-0.6-3.4-1.8-4.4s-2.7-1.6-4.6-1.6c-2,0-3.6,0.6-4.8,1.7
		c-1.2,1.1-1.8,2.6-1.8,4.2v9.5c0,1.7,0.6,3.1,1.8,4.2c1.2,1.1,2.8,1.7,4.8,1.7c1.9,0,3.5-0.5,4.6-1.6
		C145.8,125.5,146.4,124,146.4,122.2z"/>
	<path class="st1" d="M177.1,137.9L177.1,137.9c-3.6,0-6.6-1-8.9-3.1s-3.4-4.9-3.4-8.3V83c0-1.7,0.8-2.5,2.5-2.6h6.4
		c1.7,0,2.5,0.9,2.5,2.6v40.4c0,1.2,0.3,2.2,1,2.9c0.7,0.7,1.6,1,2.9,1h0.9c1,0,1.6,0.5,1.6,1.6v6.4c0,1.7-0.8,2.5-2.5,2.5H177.1z"
		/>
	<path class="st1" d="M194.2,91.6L194.2,91.6c-2.2,0-3.8-0.6-5.1-1.8c-1.2-1.2-1.8-2.8-1.8-4.8c0-2,0.6-3.6,1.9-4.9
		c1.3-1.2,3-1.8,5-1.8c2,0,3.7,0.6,4.9,1.8c1.3,1.2,1.9,2.8,1.9,4.8c0,2-0.6,3.6-1.8,4.8C197.9,91,196.3,91.6,194.2,91.6z
		 M190.8,137.9c-1.7,0-2.5-0.8-2.5-2.5v-36c0-1.7,0.8-2.5,2.5-2.5h6.4c1.7,0,2.5,0.8,2.6,2.5v36c0,1.7-0.9,2.5-2.6,2.5H190.8z"/>
	<path class="st0" d="M271.5,95.9V96c3.6,0,6.5,1.1,8.7,3.4c2.2,2.3,3.3,5.2,3.3,8.8v27.3c0,1.7-0.8,2.5-2.5,2.5h-6.4
		c-1.7,0-2.5-0.8-2.6-2.5v-23.2c0-1.7-0.5-3.1-1.6-4c-1.1-1-2.5-1.5-4.2-1.5c-1.8,0-3.3,0.5-4.4,1.6c-1.1,1-1.7,2.4-1.7,3.9v23.2
		c0,1.7-0.8,2.5-2.5,2.5h-6.4c-1.7,0-2.5-0.8-2.5-2.5v-23.2c0-1.7-0.5-3.1-1.6-4c-1.1-1-2.5-1.5-4.2-1.5c-1.8,0-3.3,0.5-4.4,1.6
		c-1.1,1-1.7,2.4-1.7,3.9v23.2c0,1.7-0.9,2.5-2.6,2.5h-6.4c-1.7,0-2.5-0.8-2.5-2.5v-36c0-1.7,0.8-2.5,2.5-2.5h6.4
		c1.7,0,2.5,0.8,2.6,2.5v3.2h0.6c0.9-2,2.2-3.7,4.1-4.9c1.9-1.2,4.1-1.8,6.6-1.8c2.7,0,5,0.6,7,1.9c2,1.3,3.4,3.1,4.3,5.4h0.6
		c0.9-2.2,2.4-3.9,4.4-5.3C266.4,96.5,268.8,95.9,271.5,95.9z"/>
	<path class="st0" d="M307.9,138.9L307.9,138.9c-5.5,0-9.8-1.5-13.1-4.6c-3.3-3-5-7.1-5-12v-9.9c0-5,1.7-9,5-12
		c3.3-3,7.7-4.6,13.1-4.6c5.4,0,9.8,1.5,13.1,4.6c3.3,3,4.9,7.1,4.9,12v9.9c0,5-1.6,9-4.9,12C317.7,137.4,313.3,138.9,307.9,138.9z
		 M307.9,128.3L307.9,128.3c1.9,0,3.5-0.5,4.6-1.6c1.2-1.1,1.8-2.6,1.8-4.4v-9.7c0-1.9-0.6-3.4-1.8-4.4c-1.2-1.1-2.7-1.6-4.7-1.6
		c-1.9,0-3.5,0.5-4.7,1.6c-1.2,1.1-1.8,2.6-1.8,4.4v9.7c0,1.9,0.6,3.4,1.8,4.4C304.3,127.7,305.9,128.3,307.9,128.3z"/>
	<path class="st0" d="M356,95.9l-0.1,0.1c3.9,0,7,1.2,9.4,3.7c2.4,2.5,3.6,5.7,3.6,9.7v16.3c0,4-1.2,7.2-3.6,9.7
		c-2.4,2.5-5.5,3.7-9.4,3.7c-2.6,0-4.8-0.6-6.8-1.9c-1.9-1.2-3.3-2.9-4.1-4.9h-0.6v3.2c0,1.7-0.9,2.5-2.6,2.5h-6.4
		c-1.7,0-2.5-0.8-2.5-2.5V83c0-1.7,0.8-2.5,2.5-2.6h6.4c1.7,0,2.5,0.9,2.6,2.6v19.6h0.6c0.9-2.1,2.2-3.7,4.1-4.9
		C351.1,96.5,353.4,95.9,356,95.9z M357.4,122.2l-0.1-9.3c0-1.9-0.6-3.4-1.8-4.4c-1.2-1.1-2.7-1.6-4.6-1.6c-2,0-3.6,0.6-4.8,1.7
		c-1.2,1.1-1.8,2.6-1.8,4.2v9.5c0,1.7,0.6,3.1,1.8,4.2c1.2,1.1,2.8,1.7,4.8,1.7c1.9,0,3.5-0.5,4.6-1.6
		C356.8,125.5,357.4,124,357.4,122.2z"/>
	<path class="st0" d="M382.1,91.6L382.1,91.6c-2.2,0-3.8-0.6-5.1-1.8c-1.2-1.2-1.8-2.8-1.8-4.8c0-2,0.6-3.6,1.9-4.9
		c1.3-1.2,3-1.8,5-1.8c2,0,3.7,0.6,4.9,1.8c1.3,1.2,1.9,2.8,1.9,4.8c0,2-0.6,3.6-1.8,4.8C385.8,91,384.1,91.6,382.1,91.6z
		 M378.7,137.9c-1.7,0-2.5-0.8-2.5-2.5v-36c0-1.7,0.8-2.5,2.5-2.5h6.4c1.7,0,2.5,0.8,2.6,2.5v36c0,1.7-0.9,2.5-2.6,2.5H378.7z"/>
	<path class="st0" d="M408.6,137.9L408.6,137.9c-3.6,0-6.6-1-8.9-3.1c-2.3-2.1-3.4-4.9-3.4-8.3V83c0-1.7,0.8-2.5,2.5-2.6h6.4
		c1.7,0,2.5,0.9,2.5,2.6v40.4c0,1.2,0.3,2.2,1,2.9c0.7,0.7,1.6,1,2.9,1h0.9c1,0,1.6,0.5,1.6,1.6v6.4c0,1.7-0.8,2.5-2.5,2.5H408.6z"
		/>
	<path class="st0" d="M451.3,121.1l-22-0.1v2.3c0,1.9,0.6,3.4,1.9,4.5c1.3,1.1,2.9,1.7,4.9,1.7c3,0,5-0.9,5.9-2.8
		c0.5-1.1,1.3-1.7,2.5-1.7h6.9c0.8,0,1.4,0.2,1.8,0.6c0.4,0.5,0.5,1.1,0.4,1.8c-0.5,3.5-2.3,6.2-5.5,8.3c-3.1,2-7.1,3-12,3
		c-5.5,0-10-1.5-13.3-4.5c-3.3-3-5-7-5-12v-9.9c0-5,1.6-9,4.9-12c3.3-3,7.7-4.5,13.1-4.5s9.8,1.5,13.1,4.6c3.3,3.1,4.9,7.1,4.9,12.1
		v6C453.8,120.3,453,121.1,451.3,121.1z M435.8,105L435.8,105c-2,0-3.5,0.6-4.8,1.7c-1.2,1.1-1.8,2.5-1.8,4.4v2.1h13v-2.1
		c0-1.9-0.6-3.4-1.8-4.4C439.3,105.6,437.7,105,435.8,105z"/>
</g>
<g>
	<path class="st0" d="M11.8,164c0.4,0,0.6,0.2,0.6,0.6v1.2c0,0.4-0.2,0.7-0.6,0.7H7.6v14.1c0,0.4-0.2,0.6-0.6,0.6H5.5
		c-0.4,0-0.6-0.2-0.6-0.6v-14.1H0.7c-0.4,0-0.7-0.2-0.7-0.7v-1.2c0-0.4,0.2-0.6,0.7-0.6H11.8z"/>
	<path class="st0" d="M19.7,168.1L19.7,168.1c0.4,0,0.6,0.2,0.6,0.6v1.4c0,0.4-0.2,0.6-0.6,0.6c-1.2,0-2.1,0.3-2.8,0.9
		c-0.6,0.6-1,1.4-1,2.5v6.6c0,0.4-0.2,0.6-0.6,0.6H14c-0.4,0-0.6-0.2-0.6-0.6V169c0-0.4,0.2-0.6,0.6-0.6h1.4c0.4,0,0.6,0.2,0.6,0.6
		v1.7h0.2C16.7,169,17.9,168.1,19.7,168.1z"/>
	<path class="st0" d="M26.9,181.6L26.9,181.6c-1.6,0-2.9-0.5-3.9-1.4c-1-0.9-1.5-2.1-1.5-3.6V173c0-1.5,0.5-2.7,1.5-3.6
		c1-0.9,2.3-1.4,3.9-1.4s2.9,0.5,3.9,1.4c1,0.9,1.5,2.1,1.5,3.6v3.6c0,1.5-0.5,2.7-1.5,3.6C29.8,181.1,28.6,181.6,26.9,181.6z
		 M26.9,179.2L26.9,179.2c0.8,0,1.5-0.2,2-0.7c0.5-0.5,0.8-1.1,0.8-1.9V173c0-0.8-0.3-1.4-0.8-1.9c-0.5-0.5-1.2-0.7-2-0.7
		c-0.8,0-1.5,0.2-2,0.7c-0.5,0.5-0.8,1.1-0.8,1.9v3.6c0,0.8,0.3,1.4,0.8,1.9C25.4,178.9,26.1,179.2,26.9,179.2z"/>
	<path class="st0" d="M44.6,168.4L44.6,168.4c0.4,0,0.6,0.2,0.6,0.6v11.7c0,0.4-0.2,0.6-0.6,0.6h-1.4c-0.4,0-0.6-0.2-0.6-0.6v-1.3
		h-0.2c-0.3,0.7-0.7,1.2-1.3,1.6c-0.6,0.4-1.4,0.6-2.3,0.6c-1.2,0-2.1-0.4-2.9-1.1c-0.7-0.7-1.1-1.7-1.1-2.9V169
		c0-0.4,0.2-0.6,0.6-0.6h1.4c0.4,0,0.6,0.2,0.6,0.6v7.7c0,0.7,0.2,1.3,0.7,1.8c0.5,0.4,1.1,0.7,1.8,0.7c0.8,0,1.4-0.2,1.9-0.7
		c0.5-0.5,0.8-1,0.8-1.7V169c0-0.4,0.2-0.6,0.6-0.6H44.6z"/>
	<path class="st0" d="M52.1,181.3L52.1,181.3c-0.4,0-0.6-0.2-0.7-0.5l-4-11.7c-0.1-0.2,0-0.4,0-0.5c0.1-0.1,0.2-0.2,0.4-0.2h1.7
		c0.4,0,0.6,0.2,0.6,0.5l3,9.5h0.2l2.9-9.5c0.1-0.4,0.3-0.5,0.6-0.5h1.6c0.2,0,0.3,0.1,0.4,0.2c0.1,0.1,0.1,0.3,0,0.5l-4,11.7
		c-0.1,0.3-0.3,0.5-0.7,0.5H52.1z"/>
	<path class="st0" d="M70.4,175.8l-7.7,0v0.9c0,0.8,0.3,1.4,0.8,1.9c0.5,0.5,1.2,0.7,2.1,0.7c0.7,0,1.3-0.1,1.7-0.4
		c0.5-0.3,0.8-0.6,0.9-1c0.1-0.3,0.4-0.5,0.6-0.5h1.4c0.2,0,0.3,0,0.5,0.1c0.1,0.1,0.2,0.2,0.1,0.4c-0.1,1.1-0.7,2.1-1.6,2.7
		c-1,0.7-2.2,1-3.6,1c-1.7,0-3-0.5-4-1.4c-1-0.9-1.5-2.1-1.5-3.6V173c0-1.5,0.5-2.7,1.5-3.6c1-0.9,2.3-1.4,3.9-1.4
		c1.6,0,2.9,0.5,3.9,1.4c1,0.9,1.5,2.1,1.5,3.6v2.2C71,175.6,70.8,175.8,70.4,175.8z M65.5,170.3c-0.8,0-1.5,0.2-2,0.7
		c-0.5,0.5-0.8,1.1-0.8,1.9v0.8h5.6v-0.8c0-0.8-0.3-1.4-0.8-1.9C67.1,170.5,66.4,170.3,65.5,170.3z"/>
	<path class="st0" d="M73.4,181.3c-0.4,0-0.6-0.2-0.6-0.6v-1c0-0.3,0.1-0.5,0.3-0.7l6.1-8.1v-0.2h-5.6c-0.4,0-0.6-0.2-0.6-0.6V169
		c0-0.4,0.2-0.6,0.6-0.6h8.6c0.4,0,0.6,0.2,0.6,0.6v1c0,0.2-0.1,0.5-0.3,0.7l-6.1,8.1v0.2h5.9c0.4,0,0.6,0.2,0.6,0.6v1.2
		c0,0.4-0.2,0.6-0.6,0.6H73.4z"/>
	<path class="st0" d="M94.1,181.3L94.1,181.3c-1.1,0-1.9-0.3-2.5-0.9c-0.6-0.6-1-1.4-1-2.4v-14.2c0-0.4,0.2-0.6,0.6-0.6h1.4
		c0.4,0,0.6,0.2,0.6,0.6v13.5c0,0.5,0.1,0.8,0.4,1.1c0.3,0.3,0.7,0.4,1.1,0.4h0.3c0.3,0,0.4,0.1,0.4,0.4v1.4c0,0.4-0.2,0.6-0.6,0.6
		H94.1z"/>
	<path class="st0" d="M107.1,175.8l-7.7,0v0.9c0,0.8,0.3,1.4,0.8,1.9c0.5,0.5,1.2,0.7,2.1,0.7c0.7,0,1.3-0.1,1.7-0.4
		c0.5-0.3,0.8-0.6,0.9-1c0.1-0.3,0.4-0.5,0.6-0.5h1.4c0.2,0,0.3,0,0.5,0.1c0.1,0.1,0.2,0.2,0.1,0.4c-0.1,1.1-0.7,2.1-1.6,2.7
		c-1,0.7-2.2,1-3.6,1c-1.7,0-3-0.5-4-1.4c-1-0.9-1.5-2.1-1.5-3.6V173c0-1.5,0.5-2.7,1.5-3.6c1-0.9,2.3-1.4,3.9-1.4
		c1.6,0,2.9,0.5,3.9,1.4c1,0.9,1.5,2.1,1.5,3.6v2.2C107.6,175.6,107.4,175.8,107.1,175.8z M102.2,170.3c-0.8,0-1.5,0.2-2,0.7
		c-0.5,0.5-0.8,1.1-0.8,1.9v0.8h5.6v-0.8c0-0.8-0.3-1.4-0.8-1.9C103.7,170.5,103.1,170.3,102.2,170.3z"/>
	<path class="st0" d="M114.7,181.6L114.7,181.6c-1.5,0-2.7-0.3-3.6-1c-0.9-0.6-1.4-1.5-1.6-2.7c0-0.2,0-0.3,0.1-0.4
		c0.1-0.1,0.3-0.2,0.5-0.2h1.5c0.3,0,0.5,0.2,0.6,0.5c0.3,1,1.1,1.5,2.4,1.4c0.7,0,1.3-0.1,1.7-0.4c0.4-0.3,0.6-0.7,0.6-1.1
		s-0.3-0.9-0.8-1.1c-0.5-0.3-1.1-0.5-1.8-0.7c-0.7-0.2-1.4-0.4-2.2-0.6c-0.7-0.2-1.3-0.6-1.8-1.2c-0.5-0.6-0.8-1.3-0.8-2.2
		c0-1.2,0.4-2.2,1.3-2.9c0.9-0.7,2.1-1,3.5-1c1.4,0,2.6,0.3,3.4,0.9c0.9,0.6,1.4,1.4,1.5,2.5c0.1,0.4-0.1,0.6-0.6,0.6h-1.4
		c-0.1,0-0.2,0-0.4-0.1c-0.1-0.1-0.2-0.1-0.2-0.2c0,0-0.1-0.1-0.2-0.3c-0.4-0.8-1.1-1.2-2.2-1.2c-0.7,0-1.2,0.1-1.6,0.4
		c-0.4,0.3-0.6,0.6-0.6,1.1c0,0.5,0.3,0.8,0.8,1.1c0.5,0.3,1.1,0.5,1.8,0.6c0.7,0.2,1.4,0.3,2.2,0.6c0.7,0.2,1.3,0.6,1.8,1.2
		c0.5,0.6,0.8,1.3,0.8,2.2c0,1.3-0.5,2.3-1.4,3C117.4,181.2,116.2,181.6,114.7,181.6z"/>
	<path class="st0" d="M141.5,168.1L141.5,168.1c1.2,0,2.2,0.4,2.9,1.1c0.7,0.7,1.1,1.7,1.1,2.9v8.6c0,0.4-0.2,0.6-0.6,0.6h-1.4
		c-0.4,0-0.6-0.2-0.6-0.6v-7.7c0-0.7-0.2-1.3-0.7-1.8c-0.5-0.4-1.1-0.7-1.8-0.7c-0.8,0-1.4,0.2-1.9,0.7c-0.5,0.5-0.8,1-0.8,1.7v7.8
		c0,0.4-0.2,0.6-0.6,0.6h-1.4c-0.4,0-0.6-0.2-0.6-0.6v-7.7c0-0.7-0.2-1.3-0.7-1.8c-0.5-0.4-1.1-0.7-1.8-0.7c-0.8,0-1.4,0.2-1.9,0.7
		c-0.5,0.5-0.8,1-0.8,1.7v7.8c0,0.4-0.2,0.6-0.6,0.6H128c-0.4,0-0.6-0.2-0.6-0.6V169c0-0.4,0.2-0.6,0.6-0.6h1.4
		c0.4,0,0.6,0.2,0.6,0.6v1.3h0.2c0.3-0.7,0.7-1.2,1.3-1.6c0.6-0.4,1.4-0.6,2.3-0.6c0.9,0,1.7,0.2,2.4,0.7c0.7,0.4,1.1,1,1.4,1.8h0.1
		c0.3-0.7,0.8-1.3,1.4-1.8C139.8,168.3,140.6,168.1,141.5,168.1z"/>
	<path class="st0" d="M158.1,175.8l-7.7,0v0.9c0,0.8,0.3,1.4,0.8,1.9c0.5,0.5,1.2,0.7,2.1,0.7c0.7,0,1.3-0.1,1.7-0.4
		c0.5-0.3,0.8-0.6,0.9-1c0.1-0.3,0.4-0.5,0.6-0.5h1.4c0.2,0,0.3,0,0.5,0.1c0.1,0.1,0.2,0.2,0.1,0.4c-0.1,1.1-0.7,2.1-1.6,2.7
		c-1,0.7-2.2,1-3.6,1c-1.7,0-3-0.5-4-1.4c-1-0.9-1.5-2.1-1.5-3.6V173c0-1.5,0.5-2.7,1.5-3.6c1-0.9,2.3-1.4,3.9-1.4
		c1.6,0,2.9,0.5,3.9,1.4c1,0.9,1.5,2.1,1.5,3.6v2.2C158.7,175.6,158.5,175.8,158.1,175.8z M153.3,170.3c-0.8,0-1.5,0.2-2,0.7
		c-0.5,0.5-0.8,1.1-0.8,1.9v0.8h5.6v-0.8c0-0.8-0.3-1.4-0.8-1.9C154.8,170.5,154.1,170.3,153.3,170.3z"/>
	<path class="st0" d="M162.7,166.2L162.7,166.2c-0.5,0-0.9-0.1-1.2-0.4c-0.3-0.3-0.4-0.7-0.4-1.2c0-0.5,0.2-0.8,0.5-1.1
		c0.3-0.3,0.7-0.4,1.2-0.4c0.5,0,0.9,0.1,1.2,0.4c0.3,0.3,0.5,0.7,0.5,1.1c0,0.5-0.2,0.9-0.5,1.2C163.6,166,163.2,166.2,162.7,166.2
		z M162,181.3c-0.4,0-0.6-0.2-0.6-0.6V169c0-0.4,0.2-0.6,0.6-0.6h1.4c0.4,0,0.6,0.2,0.6,0.6v11.7c0,0.4-0.2,0.6-0.6,0.6H162z"/>
	<path class="st0" d="M170.8,181.3L170.8,181.3c-1.1,0-1.9-0.3-2.5-0.9c-0.6-0.6-1-1.4-1-2.4v-14.2c0-0.4,0.2-0.6,0.6-0.6h1.4
		c0.4,0,0.6,0.2,0.6,0.6v13.5c0,0.5,0.1,0.8,0.4,1.1c0.3,0.3,0.7,0.4,1.1,0.4h0.3c0.3,0,0.4,0.1,0.4,0.4v1.4c0,0.4-0.2,0.6-0.6,0.6
		H170.8z"/>
	<path class="st0" d="M177.5,181.3L177.5,181.3c-1.1,0-1.9-0.3-2.5-0.9c-0.6-0.6-1-1.4-1-2.4v-14.2c0-0.4,0.2-0.6,0.6-0.6h1.4
		c0.4,0,0.6,0.2,0.6,0.6v13.5c0,0.5,0.1,0.8,0.4,1.1c0.3,0.3,0.7,0.4,1.1,0.4h0.3c0.3,0,0.4,0.1,0.4,0.4v1.4c0,0.4-0.2,0.6-0.6,0.6
		H177.5z"/>
	<path class="st0" d="M190.5,175.8l-7.7,0v0.9c0,0.8,0.3,1.4,0.8,1.9c0.5,0.5,1.2,0.7,2.1,0.7c0.7,0,1.3-0.1,1.7-0.4
		c0.5-0.3,0.8-0.6,0.9-1c0.1-0.3,0.4-0.5,0.6-0.5h1.4c0.2,0,0.3,0,0.5,0.1c0.1,0.1,0.2,0.2,0.1,0.4c-0.1,1.1-0.7,2.1-1.6,2.7
		c-1,0.7-2.2,1-3.6,1c-1.7,0-3-0.5-4-1.4c-1-0.9-1.5-2.1-1.5-3.6V173c0-1.5,0.5-2.7,1.5-3.6c1-0.9,2.3-1.4,3.9-1.4
		c1.6,0,2.9,0.5,3.9,1.4c1,0.9,1.5,2.1,1.5,3.6v2.2C191.1,175.6,190.9,175.8,190.5,175.8z M185.6,170.3c-0.8,0-1.5,0.2-2,0.7
		c-0.5,0.5-0.8,1.1-0.8,1.9v0.8h5.6v-0.8c0-0.8-0.3-1.4-0.8-1.9C187.2,170.5,186.5,170.3,185.6,170.3z"/>
	<path class="st0" d="M203.3,168.4L203.3,168.4c0.4,0,0.6,0.2,0.6,0.6v11.7c0,0.4-0.2,0.6-0.6,0.6h-1.4c-0.4,0-0.6-0.2-0.6-0.6v-1.3
		h-0.2c-0.3,0.7-0.7,1.2-1.3,1.6c-0.6,0.4-1.4,0.6-2.3,0.6c-1.2,0-2.1-0.4-2.9-1.1c-0.7-0.7-1.1-1.7-1.1-2.9V169
		c0-0.4,0.2-0.6,0.6-0.6h1.4c0.4,0,0.6,0.2,0.6,0.6v7.7c0,0.7,0.2,1.3,0.7,1.8c0.5,0.4,1.1,0.7,1.8,0.7c0.8,0,1.4-0.2,1.9-0.7
		c0.5-0.5,0.8-1,0.8-1.7V169c0-0.4,0.2-0.6,0.6-0.6H203.3z"/>
	<path class="st0" d="M213.4,168.1L213.4,168.1c0.4,0,0.6,0.2,0.6,0.6v1.4c0,0.4-0.2,0.6-0.6,0.6c-1.2,0-2.1,0.3-2.8,0.9
		c-0.6,0.6-1,1.4-1,2.5v6.6c0,0.4-0.2,0.6-0.6,0.6h-1.4c-0.4,0-0.6-0.2-0.6-0.6V169c0-0.4,0.2-0.6,0.6-0.6h1.4
		c0.4,0,0.6,0.2,0.6,0.6v1.7h0.2C210.4,169,211.6,168.1,213.4,168.1z"/>
	<path class="st0" d="M225.5,175.8l-7.7,0v0.9c0,0.8,0.3,1.4,0.8,1.9c0.5,0.5,1.2,0.7,2.1,0.7c0.7,0,1.3-0.1,1.7-0.4
		c0.5-0.3,0.8-0.6,0.9-1c0.1-0.3,0.4-0.5,0.6-0.5h1.4c0.2,0,0.3,0,0.5,0.1c0.1,0.1,0.2,0.2,0.1,0.4c-0.1,1.1-0.7,2.1-1.6,2.7
		c-1,0.7-2.2,1-3.6,1c-1.7,0-3-0.5-4-1.4c-1-0.9-1.5-2.1-1.5-3.6V173c0-1.5,0.5-2.7,1.5-3.6c1-0.9,2.3-1.4,3.9-1.4
		c1.6,0,2.9,0.5,3.9,1.4c1,0.9,1.5,2.1,1.5,3.6v2.2C226.1,175.6,225.8,175.8,225.5,175.8z M220.6,170.3c-0.8,0-1.5,0.2-2,0.7
		c-0.5,0.5-0.8,1.1-0.8,1.9v0.8h5.6v-0.8c0-0.8-0.3-1.4-0.8-1.9C222.2,170.5,221.5,170.3,220.6,170.3z"/>
	<path class="st0" d="M233.1,181.6L233.1,181.6c-1.5,0-2.7-0.3-3.6-1c-0.9-0.6-1.4-1.5-1.6-2.7c0-0.2,0-0.3,0.1-0.4
		c0.1-0.1,0.3-0.2,0.5-0.2h1.5c0.3,0,0.5,0.2,0.6,0.5c0.3,1,1.1,1.5,2.4,1.4c0.7,0,1.3-0.1,1.7-0.4c0.4-0.3,0.6-0.7,0.6-1.1
		s-0.3-0.9-0.8-1.1c-0.5-0.3-1.1-0.5-1.8-0.7c-0.7-0.2-1.4-0.4-2.2-0.6c-0.7-0.2-1.3-0.6-1.8-1.2c-0.5-0.6-0.8-1.3-0.8-2.2
		c0-1.2,0.4-2.2,1.3-2.9c0.9-0.7,2.1-1,3.5-1c1.4,0,2.6,0.3,3.4,0.9c0.9,0.6,1.4,1.4,1.5,2.5c0.1,0.4-0.1,0.6-0.6,0.6h-1.4
		c-0.1,0-0.2,0-0.4-0.1c-0.1-0.1-0.2-0.1-0.2-0.2c0,0-0.1-0.1-0.2-0.3c-0.4-0.8-1.1-1.2-2.2-1.2c-0.7,0-1.2,0.1-1.6,0.4
		c-0.4,0.3-0.6,0.6-0.6,1.1c0,0.5,0.3,0.8,0.8,1.1c0.5,0.3,1.1,0.5,1.8,0.6c0.7,0.2,1.4,0.3,2.2,0.6c0.7,0.2,1.3,0.6,1.8,1.2
		c0.5,0.6,0.8,1.3,0.8,2.2c0,1.3-0.5,2.3-1.4,3C235.9,181.2,234.6,181.6,233.1,181.6z"/>
	<path class="st0" d="M252.1,168.1L252.1,168.1c0.4,0,0.6,0.2,0.6,0.6v1.4c0,0.4-0.2,0.6-0.6,0.6c-1.2,0-2.1,0.3-2.8,0.9
		c-0.6,0.6-1,1.4-1,2.5v6.6c0,0.4-0.2,0.6-0.6,0.6h-1.4c-0.4,0-0.6-0.2-0.6-0.6V169c0-0.4,0.2-0.6,0.6-0.6h1.4
		c0.4,0,0.6,0.2,0.6,0.6v1.7h0.2C249.1,169,250.3,168.1,252.1,168.1z"/>
	<path class="st0" d="M259.3,168.1L259.3,168.1c1.6,0,2.8,0.4,3.8,1.2c0.9,0.8,1.4,1.8,1.4,3.1v8.3c0,0.4-0.2,0.6-0.6,0.6h-1.3
		c-0.4,0-0.6-0.2-0.6-0.6v-1.3h-0.2c-0.3,0.7-0.7,1.2-1.4,1.6c-0.7,0.4-1.5,0.6-2.4,0.6c-1.3,0-2.4-0.3-3.1-1
		c-0.8-0.7-1.2-1.6-1.2-2.8c0-1.2,0.4-2.1,1.2-2.8c0.8-0.7,1.8-1.1,3.1-1.1h3.9v-1.2c0-0.7-0.2-1.3-0.7-1.7c-0.5-0.4-1.1-0.6-2-0.6
		c-1.4,0-2.2,0.5-2.4,1.5c-0.1,0.4-0.3,0.5-0.6,0.5h-1.4c-0.4,0-0.6-0.2-0.6-0.6c0-1.1,0.5-2,1.4-2.7
		C256.6,168.4,257.8,168.1,259.3,168.1z M258.8,179.4L258.8,179.4c0.9,0,1.6-0.2,2.2-0.6c0.6-0.4,0.9-0.9,0.9-1.5v-1.3h-3.6
		c-0.6,0-1.1,0.2-1.5,0.5c-0.4,0.3-0.5,0.7-0.5,1.2c0,0.6,0.2,1,0.7,1.3C257.4,179.3,258,179.4,258.8,179.4z"/>
	<path class="st0" d="M273.9,168.1L273.9,168.1c1.3,0,2.3,0.4,3.1,1.2c0.8,0.8,1.2,1.8,1.2,3.1v5c0,1.3-0.4,2.3-1.2,3.1
		c-0.8,0.8-1.8,1.2-3.1,1.2c-0.9,0-1.7-0.2-2.4-0.6c-0.7-0.4-1.1-1-1.4-1.7H270v1.4c0,0.4-0.2,0.6-0.6,0.6h-1.4
		c-0.4,0-0.6-0.2-0.6-0.6v-16.8c0-0.4,0.2-0.6,0.6-0.6h1.4c0.4,0,0.6,0.2,0.6,0.6v6.5h0.2c0.3-0.7,0.7-1.2,1.4-1.7
		C272.3,168.3,273.1,168.1,273.9,168.1z M275.7,176.6l0-3.5c0-0.8-0.3-1.4-0.8-1.9c-0.5-0.5-1.2-0.7-2-0.7c-0.8,0-1.5,0.3-2.1,0.8
		c-0.5,0.5-0.8,1.1-0.8,1.8v3.5c0,0.7,0.3,1.3,0.8,1.8c0.5,0.5,1.2,0.8,2.1,0.8c0.8,0,1.5-0.2,2-0.7
		C275.4,178,275.7,177.4,275.7,176.6z"/>
	<path class="st0" d="M285.8,168.1L285.8,168.1c1.6,0,2.8,0.4,3.8,1.2c0.9,0.8,1.4,1.8,1.4,3.1v8.3c0,0.4-0.2,0.6-0.6,0.6h-1.3
		c-0.4,0-0.6-0.2-0.6-0.6v-1.3h-0.2c-0.3,0.7-0.7,1.2-1.4,1.6c-0.7,0.4-1.5,0.6-2.4,0.6c-1.3,0-2.4-0.3-3.1-1
		c-0.8-0.7-1.2-1.6-1.2-2.8c0-1.2,0.4-2.1,1.2-2.8c0.8-0.7,1.8-1.1,3.1-1.1h3.9v-1.2c0-0.7-0.2-1.3-0.7-1.7c-0.5-0.4-1.1-0.6-2-0.6
		c-1.4,0-2.2,0.5-2.4,1.5c-0.1,0.4-0.3,0.5-0.6,0.5h-1.4c-0.4,0-0.6-0.2-0.6-0.6c0-1.1,0.5-2,1.4-2.7
		C283.1,168.4,284.3,168.1,285.8,168.1z M285.4,179.4L285.4,179.4c0.9,0,1.6-0.2,2.2-0.6c0.6-0.4,0.9-0.9,0.9-1.5v-1.3h-3.6
		c-0.6,0-1.1,0.2-1.5,0.5c-0.4,0.3-0.5,0.7-0.5,1.2c0,0.6,0.2,1,0.7,1.3C283.9,179.3,284.6,179.4,285.4,179.4z"/>
	<path class="st0" d="M295.3,166.2L295.3,166.2c-0.5,0-0.9-0.1-1.2-0.4c-0.3-0.3-0.4-0.7-0.4-1.2c0-0.5,0.2-0.8,0.5-1.1
		c0.3-0.3,0.7-0.4,1.2-0.4s0.9,0.1,1.2,0.4c0.3,0.3,0.5,0.7,0.5,1.1c0,0.5-0.2,0.9-0.5,1.2C296.2,166,295.8,166.2,295.3,166.2z
		 M294.6,181.3c-0.4,0-0.6-0.2-0.6-0.6V169c0-0.4,0.2-0.6,0.6-0.6h1.4c0.4,0,0.6,0.2,0.6,0.6v11.7c0,0.4-0.2,0.6-0.6,0.6H294.6z"/>
	<path class="st0" d="M304,181.6L304,181.6c-1.5,0-2.7-0.3-3.6-1c-0.9-0.6-1.4-1.5-1.6-2.7c0-0.2,0-0.3,0.1-0.4
		c0.1-0.1,0.3-0.2,0.5-0.2h1.5c0.3,0,0.5,0.2,0.6,0.5c0.3,1,1.1,1.5,2.4,1.4c0.7,0,1.3-0.1,1.7-0.4c0.4-0.3,0.6-0.7,0.6-1.1
		s-0.3-0.9-0.8-1.1c-0.5-0.3-1.1-0.5-1.8-0.7c-0.7-0.2-1.4-0.4-2.2-0.6c-0.7-0.2-1.3-0.6-1.8-1.2c-0.5-0.6-0.8-1.3-0.8-2.2
		c0-1.2,0.4-2.2,1.3-2.9c0.9-0.7,2.1-1,3.5-1c1.4,0,2.6,0.3,3.4,0.9c0.9,0.6,1.4,1.4,1.5,2.5c0.1,0.4-0.1,0.6-0.6,0.6h-1.4
		c-0.1,0-0.2,0-0.4-0.1c-0.1-0.1-0.2-0.1-0.2-0.2c0,0-0.1-0.1-0.2-0.3c-0.4-0.8-1.1-1.2-2.2-1.2c-0.7,0-1.2,0.1-1.6,0.4
		c-0.4,0.3-0.6,0.6-0.6,1.1c0,0.5,0.3,0.8,0.8,1.1c0.5,0.3,1.1,0.5,1.8,0.6c0.7,0.2,1.4,0.3,2.2,0.6c0.7,0.2,1.3,0.6,1.8,1.2
		c0.5,0.6,0.8,1.3,0.8,2.2c0,1.3-0.5,2.3-1.4,3C306.8,181.2,305.6,181.6,304,181.6z"/>
	<path class="st0" d="M323.2,168.1L323.2,168.1c1.3,0,2.3,0.4,3.1,1.2c0.8,0.8,1.2,1.8,1.2,3.1v5c0,1.3-0.4,2.3-1.2,3.1
		c-0.8,0.8-1.8,1.2-3.1,1.2c-0.9,0-1.7-0.2-2.4-0.6c-0.7-0.4-1.1-1-1.4-1.7h-0.2v6c0,0.4-0.2,0.6-0.6,0.6h-1.4
		c-0.4,0-0.6-0.2-0.6-0.6V169c0-0.4,0.2-0.6,0.6-0.6h1.4c0.4,0,0.6,0.2,0.6,0.6v1.4h0.2c0.3-0.7,0.7-1.2,1.4-1.7
		C321.6,168.3,322.3,168.1,323.2,168.1z M324.9,176.6l0-3.5c0-0.8-0.3-1.4-0.8-1.9c-0.5-0.5-1.2-0.7-2-0.7c-0.8,0-1.5,0.3-2.1,0.8
		c-0.5,0.5-0.8,1.1-0.8,1.8v3.5c0,0.7,0.3,1.3,0.8,1.8c0.5,0.5,1.2,0.8,2.1,0.8c0.8,0,1.5-0.2,2-0.7
		C324.7,178,324.9,177.4,324.9,176.6z"/>
	<path class="st0" d="M336.6,168.1L336.6,168.1c0.4,0,0.6,0.2,0.6,0.6v1.4c0,0.4-0.2,0.6-0.6,0.6c-1.2,0-2.1,0.3-2.8,0.9
		c-0.6,0.6-1,1.4-1,2.5v6.6c0,0.4-0.2,0.6-0.6,0.6h-1.4c-0.4,0-0.6-0.2-0.6-0.6V169c0-0.4,0.2-0.6,0.6-0.6h1.4
		c0.4,0,0.6,0.2,0.6,0.6v1.7h0.2C333.6,169,334.7,168.1,336.6,168.1z"/>
	<path class="st0" d="M348.6,175.8l-7.7,0v0.9c0,0.8,0.3,1.4,0.8,1.9c0.5,0.5,1.2,0.7,2.1,0.7c0.7,0,1.3-0.1,1.7-0.4
		c0.5-0.3,0.8-0.6,0.9-1c0.1-0.3,0.4-0.5,0.6-0.5h1.4c0.2,0,0.3,0,0.5,0.1c0.1,0.1,0.2,0.2,0.1,0.4c-0.1,1.1-0.7,2.1-1.6,2.7
		c-1,0.7-2.2,1-3.6,1c-1.7,0-3-0.5-4-1.4c-1-0.9-1.5-2.1-1.5-3.6V173c0-1.5,0.5-2.7,1.5-3.6c1-0.9,2.3-1.4,3.9-1.4
		c1.6,0,2.9,0.5,3.9,1.4c1,0.9,1.5,2.1,1.5,3.6v2.2C349.2,175.6,349,175.8,348.6,175.8z M342.8,166.6l-2.1-2.6
		c-0.2-0.2-0.2-0.4-0.1-0.5c0.1-0.2,0.2-0.2,0.5-0.2h1.6c0.3,0,0.6,0.1,0.7,0.4l1.5,2.5c0.1,0.2,0.1,0.4,0.1,0.5
		c-0.1,0.1-0.2,0.2-0.5,0.2h-0.8C343.2,167,343,166.9,342.8,166.6z M343.7,170.3c-0.8,0-1.5,0.2-2,0.7c-0.5,0.5-0.8,1.1-0.8,1.9v0.8
		h5.6v-0.8c0-0.8-0.3-1.4-0.8-1.9C345.3,170.5,344.6,170.3,343.7,170.3z"/>
	<path class="st0" d="M356.2,181.6L356.2,181.6c-1.5,0-2.7-0.3-3.6-1c-0.9-0.6-1.4-1.5-1.6-2.7c0-0.2,0-0.3,0.1-0.4
		c0.1-0.1,0.3-0.2,0.5-0.2h1.5c0.3,0,0.5,0.2,0.6,0.5c0.3,1,1.1,1.5,2.4,1.4c0.7,0,1.3-0.1,1.7-0.4c0.4-0.3,0.6-0.7,0.6-1.1
		s-0.3-0.9-0.8-1.1c-0.5-0.3-1.1-0.5-1.8-0.7c-0.7-0.2-1.4-0.4-2.2-0.6c-0.7-0.2-1.3-0.6-1.8-1.2c-0.5-0.6-0.8-1.3-0.8-2.2
		c0-1.2,0.4-2.2,1.3-2.9c0.9-0.7,2.1-1,3.5-1c1.4,0,2.6,0.3,3.4,0.9c0.9,0.6,1.4,1.4,1.5,2.5c0.1,0.4-0.1,0.6-0.6,0.6H359
		c-0.1,0-0.2,0-0.4-0.1c-0.1-0.1-0.2-0.1-0.2-0.2c0,0-0.1-0.1-0.2-0.3c-0.4-0.8-1.1-1.2-2.2-1.2c-0.7,0-1.2,0.1-1.6,0.4
		c-0.4,0.3-0.6,0.6-0.6,1.1c0,0.5,0.3,0.8,0.8,1.1c0.5,0.3,1.1,0.5,1.8,0.6c0.7,0.2,1.4,0.3,2.2,0.6c0.7,0.2,1.3,0.6,1.8,1.2
		c0.5,0.6,0.8,1.3,0.8,2.2c0,1.3-0.5,2.3-1.4,3C359,181.2,357.7,181.6,356.2,181.6z"/>
	<path class="st0" d="M378.6,163.2L378.6,163.2c0.4,0,0.6,0.2,0.6,0.6v16.8c0,0.4-0.2,0.6-0.6,0.6h-1.4c-0.4,0-0.6-0.2-0.6-0.6v-1.4
		h-0.2c-0.3,0.7-0.7,1.2-1.4,1.7c-0.7,0.4-1.4,0.6-2.3,0.6c-1.3,0-2.3-0.4-3.1-1.2c-0.8-0.8-1.2-1.8-1.2-3.1v-5
		c0-1.3,0.4-2.3,1.2-3.1c0.8-0.8,1.8-1.2,3.1-1.2c0.9,0,1.7,0.2,2.3,0.6c0.7,0.4,1.1,1,1.4,1.7h0.2v-6.5c0-0.4,0.2-0.6,0.6-0.6
		H378.6z M373.8,179.1L373.8,179.1c0.8,0,1.5-0.2,2.1-0.7c0.5-0.5,0.8-1.1,0.8-1.8V173c0-0.7-0.3-1.3-0.8-1.8
		c-0.5-0.5-1.2-0.8-2.1-0.8c-0.8,0-1.5,0.2-2,0.7c-0.5,0.5-0.8,1.1-0.8,1.9v3.5c0,0.8,0.3,1.4,0.8,1.9
		C372.3,178.9,373,179.1,373.8,179.1z"/>
	<path class="st0" d="M392.1,175.8l-7.7,0v0.9c0,0.8,0.3,1.4,0.8,1.9c0.5,0.5,1.2,0.7,2.1,0.7c0.7,0,1.3-0.1,1.7-0.4
		c0.5-0.3,0.8-0.6,0.9-1c0.1-0.3,0.4-0.5,0.6-0.5h1.4c0.2,0,0.3,0,0.5,0.1c0.1,0.1,0.2,0.2,0.1,0.4c-0.1,1.1-0.7,2.1-1.6,2.7
		c-1,0.7-2.2,1-3.6,1c-1.7,0-3-0.5-4-1.4c-1-0.9-1.5-2.1-1.5-3.6V173c0-1.5,0.5-2.7,1.5-3.6c1-0.9,2.3-1.4,3.9-1.4
		c1.6,0,2.9,0.5,3.9,1.4c1,0.9,1.5,2.1,1.5,3.6v2.2C392.7,175.6,392.5,175.8,392.1,175.8z M387.2,170.3c-0.8,0-1.5,0.2-2,0.7
		c-0.5,0.5-0.8,1.1-0.8,1.9v0.8h5.6v-0.8c0-0.8-0.3-1.4-0.8-1.9C388.8,170.5,388.1,170.3,387.2,170.3z"/>
	<path class="st0" d="M404.5,181.3L404.5,181.3c-0.4,0-0.6-0.2-0.7-0.5l-4-11.7c-0.1-0.2,0-0.4,0-0.5c0.1-0.1,0.2-0.2,0.4-0.2h1.7
		c0.4,0,0.6,0.2,0.6,0.5l3,9.5h0.2l2.9-9.5c0.1-0.4,0.3-0.5,0.6-0.5h1.6c0.2,0,0.3,0.1,0.4,0.2c0.1,0.1,0.1,0.3,0,0.5l-4,11.7
		c-0.1,0.3-0.3,0.5-0.7,0.5H404.5z"/>
	<path class="st0" d="M417.9,181.6L417.9,181.6c-1.6,0-2.9-0.5-3.9-1.4c-1-0.9-1.5-2.1-1.5-3.6V173c0-1.5,0.5-2.7,1.5-3.6
		c1-0.9,2.3-1.4,3.9-1.4s2.9,0.5,3.9,1.4c1,0.9,1.5,2.1,1.5,3.6v3.6c0,1.5-0.5,2.7-1.5,3.6C420.9,181.1,419.6,181.6,417.9,181.6z
		 M417.9,179.2L417.9,179.2c0.8,0,1.5-0.2,2-0.7c0.5-0.5,0.8-1.1,0.8-1.9V173c0-0.8-0.3-1.4-0.8-1.9c-0.5-0.5-1.2-0.7-2-0.7
		c-0.8,0-1.5,0.2-2,0.7c-0.5,0.5-0.8,1.1-0.8,1.9v3.6c0,0.8,0.3,1.4,0.8,1.9C416.4,178.9,417.1,179.2,417.9,179.2z"/>
	<path class="st0" d="M435.6,168.4L435.6,168.4c0.4,0,0.6,0.2,0.6,0.6v11.7c0,0.4-0.2,0.6-0.6,0.6h-1.4c-0.4,0-0.6-0.2-0.6-0.6v-1.3
		h-0.2c-0.3,0.7-0.7,1.2-1.3,1.6c-0.6,0.4-1.4,0.6-2.3,0.6c-1.2,0-2.1-0.4-2.9-1.1c-0.7-0.7-1.1-1.7-1.1-2.9V169
		c0-0.4,0.2-0.6,0.6-0.6h1.4c0.4,0,0.6,0.2,0.6,0.6v7.7c0,0.7,0.2,1.3,0.7,1.8c0.5,0.4,1.1,0.7,1.8,0.7c0.8,0,1.4-0.2,1.9-0.7
		c0.5-0.5,0.8-1,0.8-1.7V169c0-0.4,0.2-0.6,0.6-0.6H435.6z"/>
	<path class="st0" d="M443.6,181.6L443.6,181.6c-1.5,0-2.7-0.3-3.6-1c-0.9-0.6-1.4-1.5-1.6-2.7c0-0.2,0-0.3,0.1-0.4
		c0.1-0.1,0.3-0.2,0.5-0.2h1.5c0.3,0,0.5,0.2,0.6,0.5c0.3,1,1.1,1.5,2.4,1.4c0.7,0,1.3-0.1,1.7-0.4c0.4-0.3,0.6-0.7,0.6-1.1
		s-0.3-0.9-0.8-1.1c-0.5-0.3-1.1-0.5-1.8-0.7c-0.7-0.2-1.4-0.4-2.2-0.6c-0.7-0.2-1.3-0.6-1.8-1.2c-0.5-0.6-0.8-1.3-0.8-2.2
		c0-1.2,0.4-2.2,1.3-2.9s2.1-1,3.5-1c1.4,0,2.6,0.3,3.4,0.9c0.9,0.6,1.4,1.4,1.5,2.5c0.1,0.4-0.1,0.6-0.6,0.6h-1.4
		c-0.1,0-0.2,0-0.4-0.1c-0.1-0.1-0.2-0.1-0.2-0.2c0,0-0.1-0.1-0.2-0.3c-0.4-0.8-1.1-1.2-2.2-1.2c-0.7,0-1.2,0.1-1.6,0.4
		c-0.4,0.3-0.6,0.6-0.6,1.1c0,0.5,0.3,0.8,0.8,1.1c0.5,0.3,1.1,0.5,1.8,0.6c0.7,0.2,1.4,0.3,2.2,0.6c0.7,0.2,1.3,0.6,1.8,1.2
		s0.8,1.3,0.8,2.2c0,1.3-0.5,2.3-1.4,3C446.4,181.2,445.2,181.6,443.6,181.6z"/>
	<path class="st0" d="M452.3,181.4L452.3,181.4c-0.5,0-1-0.2-1.3-0.5c-0.3-0.3-0.5-0.8-0.5-1.3c0-0.5,0.2-1,0.5-1.3
		c0.3-0.3,0.8-0.5,1.3-0.5c0.5,0,0.9,0.2,1.3,0.5c0.3,0.3,0.5,0.7,0.5,1.3c0,0.6-0.2,1-0.5,1.3C453.3,181.3,452.9,181.4,452.3,181.4
		z"/>
</g>
</svg>
