<?xml version="1.0" encoding="utf-8"?>
<!-- Generator: Adobe Illustrator 19.1.0, SVG Export Plug-In . SVG Version: 6.00 Build 0)  -->
<svg version="1.1" id="Layer_1" xmlns="http://www.w3.org/2000/svg" xmlns:xlink="http://www.w3.org/1999/xlink" x="0px" y="0px"
	 viewBox="0 0 228 70" style="enable-background:new 0 0 228 70;" xml:space="preserve">
<style type="text/css">
	.Graphic_x0020_Style_x0020_2{fill:url(#SVGID_1_);}
	.st0{fill:#A6A5A5;}
	.st1{fill:#FFFFFF;}
	.st2{fill:#5BC8F3;}
	.st3{fill:url(#SVGID_2_);}
	.st4{fill:url(#SVGID_3_);}
	.st5{fill:url(#SVGID_4_);}
	.st6{fill:#FFFFFF;stroke:#FFFFFF;stroke-width:0.3348;stroke-miterlimit:10;}
</style>
<linearGradient id="SVGID_1_" gradientUnits="userSpaceOnUse" x1="202.6184" y1="74.7627" x2="201.9113" y2="75.4699">
	<stop  offset="0" style="stop-color:#EE4447"/>
	<stop  offset="1" style="stop-color:#C5166C"/>
</linearGradient>
<g>
	<g>
		<g>
			<path d="M218.6,68.5H9.4c-4.6,0-8.4-3.8-8.4-8.4V9.9c0-4.6,3.8-8.4,8.4-8.4h209.3c4.6,0,8.4,3.8,8.4,8.4v50.2
				C227,64.7,223.2,68.5,218.6,68.5z"/>
		</g>
		<g>
			<g>
				<path class="st0" d="M218.6,2.9c3.9,0,7,3.2,7,7v50.2c0,3.9-3.2,7-7,7H9.4c-3.9,0-7-3.2-7-7V9.9c0-3.9,3.2-7,7-7H218.6
					 M218.6,1.5H9.4C4.8,1.5,1,5.3,1,9.9v50.2c0,4.6,3.8,8.4,8.4,8.4h209.3c4.6,0,8.4-3.8,8.4-8.4V9.9C227,5.3,223.2,1.5,218.6,1.5
					L218.6,1.5z"/>
			</g>
		</g>
		<path class="st1" d="M115.1,37.9c-3.9,0-7.1,3-7.1,7.1c0,4.1,3.2,7.1,7.1,7.1c3.9,0,7.1-3,7.1-7.1C122.2,40.9,119,37.9,115.1,37.9
			z M115.1,49.4c-2.2,0-4-1.8-4-4.3c0-2.6,1.9-4.3,4-4.3s4,1.8,4,4.3C119.1,47.6,117.2,49.4,115.1,49.4z M99.5,37.9
			c-3.9,0-7.1,3-7.1,7.1c0,4.1,3.2,7.1,7.1,7.1c3.9,0,7.1-3,7.1-7.1C106.6,40.9,103.4,37.9,99.5,37.9z M99.5,49.4
			c-2.2,0-4-1.8-4-4.3c0-2.6,1.9-4.3,4-4.3c2.2,0,4,1.8,4,4.3C103.5,47.6,101.6,49.4,99.5,49.4z M80.9,40.1v3h7.2
			c-0.2,1.7-0.8,2.9-1.6,3.8c-1.1,1.1-2.7,2.2-5.6,2.2c-4.5,0-7.9-3.6-7.9-8s3.5-8,7.9-8c2.4,0,4.2,0.9,5.4,2.2l2.1-2.1
			c-1.8-1.7-4.2-3-7.6-3c-6.1,0-11.2,5-11.2,11.1c0,6.1,5.1,11.1,11.2,11.1c3.3,0,5.8-1.1,7.7-3.1c2-2,2.6-4.8,2.6-7.1
			c0-0.7-0.1-1.3-0.2-1.9H80.9z M156.8,42.5c-0.6-1.6-2.4-4.5-6.1-4.5c-3.7,0-6.7,2.9-6.7,7.1c0,4,3,7.1,7.1,7.1
			c3.3,0,5.2-2,5.9-3.2l-2.4-1.6c-0.8,1.2-1.9,2-3.5,2c-1.6,0-2.7-0.7-3.5-2.2l9.5-3.9L156.8,42.5z M147.1,44.8
			c-0.1-2.8,2.1-4.2,3.7-4.2c1.2,0,2.3,0.6,2.6,1.5L147.1,44.8z M139.3,51.7h3.1V30.8h-3.1V51.7z M134.2,39.5h-0.1
			c-0.7-0.8-2-1.6-3.7-1.6c-3.6,0-6.8,3.1-6.8,7.1c0,4,3.3,7.1,6.8,7.1c1.7,0,3-0.8,3.7-1.6h0.1v1c0,2.7-1.5,4.2-3.8,4.2
			c-1.9,0-3.1-1.4-3.6-2.5l-2.7,1.1c0.8,1.9,2.9,4.2,6.3,4.2c3.7,0,6.8-2.2,6.8-7.4V38.4h-3V39.5z M130.6,49.4c-2.2,0-4-1.8-4-4.3
			c0-2.5,1.8-4.3,4-4.3c2.1,0,3.8,1.8,3.8,4.3C134.4,47.6,132.7,49.4,130.6,49.4z M171.4,30.8h-7.5v20.9h3.1v-7.9h4.4
			c3.5,0,6.9-2.5,6.9-6.5S174.9,30.8,171.4,30.8z M171.5,40.9h-4.4v-7.2h4.4c2.3,0,3.7,1.9,3.7,3.6
			C175.2,38.9,173.8,40.9,171.5,40.9z M190.8,37.9c-2.3,0-4.6,1-5.6,3.2l2.8,1.2c0.6-1.2,1.7-1.5,2.9-1.5c1.6,0,3.3,1,3.3,2.7v0.2
			c-0.6-0.3-1.8-0.8-3.3-0.8c-3,0-6,1.6-6,4.7c0,2.8,2.5,4.6,5.2,4.6c2.1,0,3.3-0.9,4-2h0.1v1.6h3v-8
			C197.2,40,194.4,37.9,190.8,37.9z M190.4,49.4c-1,0-2.5-0.5-2.5-1.8c0-1.6,1.8-2.2,3.3-2.2c1.4,0,2,0.3,2.9,0.7
			C193.9,48,192.2,49.4,190.4,49.4z M208.2,38.4l-3.6,9.1h-0.1l-3.7-9.1h-3.4L203,51l-3.2,7.1h3.3l8.6-19.7H208.2z M180,51.7h3.1
			V30.8H180V51.7z"/>
		<g>
			<g>
				<g>
					<path class="st2" d="M18.5,14.2c-0.5,0.5-0.8,1.3-0.8,2.4v37c0,1,0.3,1.8,0.8,2.4l0.1,0.1l20.7-20.7V35v-0.2L18.6,14L18.5,14.2
						z"/>
					<linearGradient id="SVGID_2_" gradientUnits="userSpaceOnUse" x1="53.0423" y1="35.0005" x2="12.5668" y2="35.0005">
						<stop  offset="0" style="stop-color:#FFDF00"/>
						<stop  offset="0.4087" style="stop-color:#FBBC0E"/>
						<stop  offset="0.7754" style="stop-color:#F9A418"/>
						<stop  offset="1" style="stop-color:#F89B1C"/>
					</linearGradient>
					<path class="st3" d="M46.2,42.2l-6.9-6.9V35v-0.2l6.9-6.9l0.2,0.1l8.2,4.7c2.3,1.3,2.3,3.5,0,4.8l-8.2,4.7L46.2,42.2z"/>
					<linearGradient id="SVGID_3_" gradientUnits="userSpaceOnUse" x1="42.5384" y1="38.839" x2="4.4692" y2="76.9082">
						<stop  offset="0" style="stop-color:#EE4447"/>
						<stop  offset="1" style="stop-color:#C5166C"/>
					</linearGradient>
					<path class="st4" d="M46.4,42.1L39.3,35L18.5,55.8c0.8,0.8,2,0.9,3.5,0.1L46.4,42.1"/>
					<linearGradient id="SVGID_4_" gradientUnits="userSpaceOnUse" x1="4.2996" y1="-7.0781" x2="35.382" y2="24.0043">
						<stop  offset="0" style="stop-color:#269E6F"/>
						<stop  offset="5.089003e-02" style="stop-color:#2BA06F"/>
						<stop  offset="0.4663" style="stop-color:#53B26B"/>
						<stop  offset="0.7971" style="stop-color:#6BBD69"/>
						<stop  offset="1" style="stop-color:#74C168"/>
					</linearGradient>
					<path class="st5" d="M46.4,27.9L21.9,14c-1.4-0.8-2.7-0.7-3.5,0.1L39.3,35L46.4,27.9z"/>
				</g>
			</g>
		</g>
	</g>
	<g>
		<path class="st6" d="M70.1,23.3v-10h3.1c1.5,0,2.8,0.5,3.7,1.4c0.9,0.9,1.4,2.1,1.4,3.6c0,1.5-0.5,2.7-1.4,3.6
			c-0.9,0.9-2.2,1.4-3.7,1.4H70.1z M71.4,22h1.8c1.2,0,2.1-0.3,2.8-1c0.7-0.7,1-1.6,1-2.8c0-1.2-0.3-2.1-1-2.8c-0.7-0.7-1.6-1-2.8-1
			h-1.8V22z"/>
		<path class="st6" d="M80.1,23.3v-10h1.3v10H80.1z"/>
		<path class="st6" d="M86.5,23.5c-0.7,0-1.4-0.2-2.1-0.7c-0.7-0.5-1.2-1.1-1.4-2l1.2-0.5c0.1,0.6,0.4,1,0.9,1.4
			c0.4,0.4,0.9,0.6,1.5,0.6c0.6,0,1-0.1,1.4-0.4c0.4-0.3,0.6-0.7,0.6-1.2c0-0.6-0.2-1-0.6-1.3c-0.4-0.3-1-0.6-1.9-0.8
			c-0.9-0.3-1.6-0.6-2-1.1c-0.5-0.4-0.7-1-0.7-1.7c0-0.7,0.3-1.3,0.9-1.9c0.6-0.5,1.3-0.8,2.2-0.8c0.9,0,1.5,0.2,2.1,0.6
			c0.5,0.4,0.9,0.9,1,1.4l-1.2,0.5c-0.1-0.3-0.3-0.6-0.6-0.9c-0.3-0.3-0.8-0.4-1.3-0.4c-0.5,0-0.9,0.1-1.3,0.4
			c-0.4,0.3-0.5,0.6-0.5,1c0,0.4,0.2,0.7,0.5,0.9c0.3,0.3,0.8,0.5,1.4,0.7c0.5,0.2,0.9,0.3,1.2,0.5c0.3,0.1,0.7,0.3,1,0.6
			c0.3,0.2,0.6,0.6,0.8,0.9c0.2,0.4,0.3,0.8,0.3,1.3c0,0.5-0.1,0.9-0.3,1.3c-0.2,0.4-0.5,0.7-0.8,0.9c-0.3,0.2-0.7,0.4-1.1,0.5
			C87.3,23.4,86.9,23.5,86.5,23.5z"/>
		<path class="st6" d="M93,23.3h-1.3v-10h3.4c0.9,0,1.6,0.3,2.2,0.8c0.6,0.6,0.9,1.3,0.9,2.1c0,0.9-0.3,1.6-0.9,2.1
			c-0.6,0.6-1.4,0.8-2.2,0.8H93V23.3z M93,18h2.2c0.5,0,1-0.2,1.3-0.5c0.3-0.4,0.5-0.8,0.5-1.2c0-0.4-0.2-0.8-0.5-1.2
			c-0.3-0.4-0.8-0.5-1.3-0.5H93V18z"/>
		<path class="st6" d="M108.1,22c-1,1-2.2,1.5-3.7,1.5c-1.5,0-2.7-0.5-3.7-1.5c-1-1-1.5-2.3-1.5-3.7s0.5-2.7,1.5-3.7
			c1-1,2.2-1.5,3.7-1.5c1.5,0,2.7,0.5,3.7,1.5c1,1,1.5,2.3,1.5,3.7C109.6,19.7,109.1,21,108.1,22z M101.7,21.1
			c0.7,0.8,1.7,1.1,2.7,1.1c1.1,0,2-0.4,2.7-1.1c0.7-0.8,1.1-1.7,1.1-2.9c0-1.2-0.4-2.1-1.1-2.9c-0.7-0.8-1.7-1.1-2.7-1.1
			c-1.1,0-2,0.4-2.7,1.1c-0.7,0.8-1.1,1.7-1.1,2.9C100.6,19.4,101,20.4,101.7,21.1z"/>
		<path class="st6" d="M111.4,23.3v-10h1.6l4.9,7.8h0.1l-0.1-1.9v-5.9h1.3v10h-1.3l-5.1-8.2h-0.1l0.1,1.9v6.3H111.4z"/>
		<path class="st6" d="M121.4,23.3v-10h1.3v10H121.4z"/>
		<path class="st6" d="M125,23.3v-10h3.6c0.8,0,1.5,0.3,2,0.8c0.6,0.5,0.9,1.2,0.9,2c0,0.5-0.1,0.9-0.4,1.3c-0.2,0.4-0.6,0.6-1,0.8
			v0.1c0.5,0.2,0.9,0.5,1.2,0.9c0.3,0.4,0.5,0.9,0.5,1.4c0,0.8-0.3,1.5-0.9,2c-0.6,0.5-1.3,0.8-2.1,0.8H125z M126.3,17.5h2.3
			c0.5,0,0.9-0.2,1.2-0.5c0.3-0.3,0.4-0.7,0.4-1.1s-0.1-0.7-0.4-1.1c-0.3-0.3-0.7-0.5-1.1-0.5h-2.4V17.5z M126.3,22h2.6
			c0.5,0,0.9-0.2,1.2-0.5c0.3-0.3,0.5-0.7,0.5-1.1c0-0.4-0.2-0.8-0.5-1.1c-0.3-0.3-0.7-0.5-1.2-0.5h-2.5V22z"/>
		<path class="st6" d="M133.7,23.3v-10h1.3V22h4.3v1.2H133.7z"/>
		<path class="st6" d="M146.8,14.5h-4.6v3.2h4.1v1.2h-4.1V22h4.6v1.2h-5.9v-10h5.9V14.5z"/>
		<path class="st6" d="M154.6,23.5c-0.7,0-1.4-0.2-2.1-0.7c-0.7-0.5-1.2-1.1-1.4-2l1.2-0.5c0.1,0.6,0.4,1,0.9,1.4
			c0.4,0.4,0.9,0.6,1.5,0.6c0.6,0,1-0.1,1.4-0.4c0.4-0.3,0.6-0.7,0.6-1.2c0-0.6-0.2-1-0.6-1.3c-0.4-0.3-1-0.6-1.9-0.8
			c-0.9-0.3-1.6-0.6-2-1.1c-0.5-0.4-0.7-1-0.7-1.7c0-0.7,0.3-1.3,0.9-1.9c0.6-0.5,1.3-0.8,2.2-0.8c0.9,0,1.5,0.2,2.1,0.6
			c0.5,0.4,0.9,0.9,1,1.4l-1.2,0.5c-0.1-0.3-0.3-0.6-0.6-0.9c-0.3-0.3-0.8-0.4-1.3-0.4c-0.5,0-0.9,0.1-1.3,0.4
			c-0.4,0.3-0.5,0.6-0.5,1c0,0.4,0.2,0.7,0.5,0.9c0.3,0.3,0.8,0.5,1.4,0.7c0.5,0.2,0.9,0.3,1.2,0.5c0.3,0.1,0.7,0.3,1,0.6
			c0.3,0.2,0.6,0.6,0.8,0.9c0.2,0.4,0.3,0.8,0.3,1.3c0,0.5-0.1,0.9-0.3,1.3c-0.2,0.4-0.5,0.7-0.8,0.9c-0.3,0.2-0.7,0.4-1.1,0.5
			C155.4,23.4,155,23.5,154.6,23.5z"/>
		<path class="st6" d="M163.3,23.5c-1.1,0-2-0.4-2.7-1.1c-0.7-0.7-1-1.7-1-2.9v-6.3h1.3v6.4c0,0.8,0.2,1.4,0.6,1.9
			c0.4,0.5,1,0.7,1.8,0.7c0.8,0,1.4-0.2,1.8-0.7c0.4-0.5,0.6-1.1,0.6-1.9v-6.4h1.3v6.3c0,1.2-0.3,2.1-1,2.9
			C165.3,23.1,164.4,23.5,163.3,23.5z"/>
		<path class="st6" d="M169.1,23.3v-10h3.4c0.9,0,1.6,0.3,2.2,0.8c0.6,0.6,0.9,1.3,0.9,2.1c0,0.7-0.2,1.3-0.7,1.9
			c-0.5,0.5-1,0.9-1.7,1l0,0l2.8,4.1v0.1h-1.5l-2.7-4.1h-1.4v4.1H169.1z M170.4,18h2.1c0.5,0,1-0.2,1.3-0.5c0.4-0.3,0.6-0.8,0.6-1.3
			c0-0.4-0.2-0.8-0.5-1.2c-0.3-0.4-0.8-0.5-1.3-0.5h-2.2V18z"/>
	</g>
</g>
</svg>
