<svg width="18" height="18" viewBox="0 0 18 18" fill="none" xmlns="http://www.w3.org/2000/svg">
<path d="M1.18286 2.31746C1.18286 2.02963 1.2972 1.75358 1.50073 1.55005C1.70427 1.34652 1.98031 1.23218 2.26815 1.23218H4.43872C4.72656 1.23218 5.0026 1.34652 5.20613 1.55005C5.40966 1.75358 5.52401 2.02963 5.52401 2.31746V4.48804C5.52401 4.77587 5.40966 5.05192 5.20613 5.25545C5.0026 5.45898 4.72656 5.57332 4.43872 5.57332H2.26815C1.98031 5.57332 1.70427 5.45898 1.50073 5.25545C1.2972 5.05192 1.18286 4.77587 1.18286 4.48804V2.31746ZM6.60929 2.31746C6.60929 2.02963 6.72364 1.75358 6.92717 1.55005C7.1307 1.34652 7.40674 1.23218 7.69458 1.23218H9.86515C10.153 1.23218 10.429 1.34652 10.6326 1.55005C10.8361 1.75358 10.9504 2.02963 10.9504 2.31746V4.48804C10.9504 4.77587 10.8361 5.05192 10.6326 5.25545C10.429 5.45898 10.153 5.57332 9.86515 5.57332H7.69458C7.40674 5.57332 7.1307 5.45898 6.92717 5.25545C6.72364 5.05192 6.60929 4.77587 6.60929 4.48804V2.31746ZM12.0357 2.31746C12.0357 2.02963 12.1501 1.75358 12.3536 1.55005C12.5571 1.34652 12.8332 1.23218 13.121 1.23218H15.2916C15.5794 1.23218 15.8555 1.34652 16.059 1.55005C16.2625 1.75358 16.3769 2.02963 16.3769 2.31746V4.48804C16.3769 4.77587 16.2625 5.05192 16.059 5.25545C15.8555 5.45898 15.5794 5.57332 15.2916 5.57332H13.121C12.8332 5.57332 12.5571 5.45898 12.3536 5.25545C12.1501 5.05192 12.0357 4.77587 12.0357 4.48804V2.31746ZM1.18286 7.7439C1.18286 7.45606 1.2972 7.18001 1.50073 6.97648C1.70427 6.77295 1.98031 6.65861 2.26815 6.65861H4.43872C4.72656 6.65861 5.0026 6.77295 5.20613 6.97648C5.40966 7.18001 5.52401 7.45606 5.52401 7.7439V9.91447C5.52401 10.2023 5.40966 10.4784 5.20613 10.6819C5.0026 10.8854 4.72656 10.9998 4.43872 10.9998H2.26815C1.98031 10.9998 1.70427 10.8854 1.50073 10.6819C1.2972 10.4784 1.18286 10.2023 1.18286 9.91447V7.7439ZM6.60929 7.7439C6.60929 7.45606 6.72364 7.18001 6.92717 6.97648C7.1307 6.77295 7.40674 6.65861 7.69458 6.65861H9.86515C10.153 6.65861 10.429 6.77295 10.6326 6.97648C10.8361 7.18001 10.9504 7.45606 10.9504 7.7439V9.91447C10.9504 10.2023 10.8361 10.4784 10.6326 10.6819C10.429 10.8854 10.153 10.9998 9.86515 10.9998H7.69458C7.40674 10.9998 7.1307 10.8854 6.92717 10.6819C6.72364 10.4784 6.60929 10.2023 6.60929 9.91447V7.7439ZM12.0357 7.7439C12.0357 7.45606 12.1501 7.18001 12.3536 6.97648C12.5571 6.77295 12.8332 6.65861 13.121 6.65861H15.2916C15.5794 6.65861 15.8555 6.77295 16.059 6.97648C16.2625 7.18001 16.3769 7.45606 16.3769 7.7439V9.91447C16.3769 10.2023 16.2625 10.4784 16.059 10.6819C15.8555 10.8854 15.5794 10.9998 15.2916 10.9998H13.121C12.8332 10.9998 12.5571 10.8854 12.3536 10.6819C12.1501 10.4784 12.0357 10.2023 12.0357 9.91447V7.7439ZM1.18286 13.1703C1.18286 12.8825 1.2972 12.6064 1.50073 12.4029C1.70427 12.1994 1.98031 12.085 2.26815 12.085H4.43872C4.72656 12.085 5.0026 12.1994 5.20613 12.4029C5.40966 12.6064 5.52401 12.8825 5.52401 13.1703V15.3409C5.52401 15.6287 5.40966 15.9048 5.20613 16.1083C5.0026 16.3118 4.72656 16.4262 4.43872 16.4262H2.26815C1.98031 16.4262 1.70427 16.3118 1.50073 16.1083C1.2972 15.9048 1.18286 15.6287 1.18286 15.3409V13.1703ZM6.60929 13.1703C6.60929 12.8825 6.72364 12.6064 6.92717 12.4029C7.1307 12.1994 7.40674 12.085 7.69458 12.085H9.86515C10.153 12.085 10.429 12.1994 10.6326 12.4029C10.8361 12.6064 10.9504 12.8825 10.9504 13.1703V15.3409C10.9504 15.6287 10.8361 15.9048 10.6326 16.1083C10.429 16.3118 10.153 16.4262 9.86515 16.4262H7.69458C7.40674 16.4262 7.1307 16.3118 6.92717 16.1083C6.72364 15.9048 6.60929 15.6287 6.60929 15.3409V13.1703ZM12.0357 13.1703C12.0357 12.8825 12.1501 12.6064 12.3536 12.4029C12.5571 12.1994 12.8332 12.085 13.121 12.085H15.2916C15.5794 12.085 15.8555 12.1994 16.059 12.4029C16.2625 12.6064 16.3769 12.8825 16.3769 13.1703V15.3409C16.3769 15.6287 16.2625 15.9048 16.059 16.1083C15.8555 16.3118 15.5794 16.4262 15.2916 16.4262H13.121C12.8332 16.4262 12.5571 16.3118 12.3536 16.1083C12.1501 15.9048 12.0357 15.6287 12.0357 15.3409V13.1703Z" fill="black"/>
</svg>
