<svg width="19" height="18" viewBox="0 0 19 18" fill="none" xmlns="http://www.w3.org/2000/svg">
<path fill-rule="evenodd" clip-rule="evenodd" d="M9.53467 0.146851C7.17668 0.146851 6.88075 0.157161 5.95463 0.199306C5.03032 0.241632 4.3994 0.387965 3.84735 0.602671C3.2763 0.824431 2.79189 1.12108 2.3093 1.60385C1.82634 2.08644 1.52969 2.57084 1.30721 3.1417C1.09196 3.69393 0.945441 4.32502 0.903838 5.24896C0.862415 6.17507 0.851562 6.47118 0.851562 8.82914C0.851562 11.1871 0.862054 11.4821 0.904019 12.4082C0.946526 13.3325 1.09286 13.9635 1.30739 14.5155C1.52933 15.0865 1.82598 15.5709 2.30876 16.0535C2.79117 16.5365 3.27558 16.8339 3.84626 17.0556C4.39868 17.2703 5.02978 17.4167 5.95391 17.459C6.88003 17.5011 7.17577 17.5114 9.53358 17.5114C11.8918 17.5114 12.1868 17.5011 13.1129 17.459C14.0372 17.4167 14.6689 17.2703 15.2213 17.0556C15.7921 16.8339 16.2758 16.5365 16.7582 16.0535C17.2412 15.5709 17.5378 15.0865 17.7603 14.5157C17.9738 13.9635 18.1203 13.3324 18.1637 12.4084C18.2053 11.4823 18.2161 11.1871 18.2161 8.82914C18.2161 6.47118 18.2053 6.17526 18.1637 5.24914C18.1203 4.32484 17.9738 3.69393 17.7603 3.14188C17.5378 2.57084 17.2412 2.08644 16.7582 1.60385C16.2753 1.1209 15.7923 0.82425 15.2207 0.602671C14.6672 0.387965 14.0359 0.241632 13.1116 0.199306C12.1855 0.157161 11.8907 0.146851 9.53196 0.146851H9.53467ZM8.75575 1.71145C8.98692 1.71109 9.24486 1.71145 9.53463 1.71145C11.8528 1.71145 12.1276 1.71977 13.043 1.76137C13.8896 1.80008 14.349 1.94153 14.6551 2.06037C15.0602 2.21773 15.3491 2.40585 15.6528 2.70973C15.9567 3.01361 16.1448 3.30302 16.3025 3.70819C16.4214 4.01388 16.563 4.47332 16.6015 5.31984C16.6431 6.2351 16.6522 6.51004 16.6522 8.82713C16.6522 11.1442 16.6431 11.4192 16.6015 12.3344C16.5628 13.1809 16.4214 13.6404 16.3025 13.9461C16.1452 14.3512 15.9567 14.6397 15.6528 14.9434C15.3489 15.2473 15.0604 15.4354 14.6551 15.5928C14.3494 15.7122 13.8896 15.8533 13.043 15.892C12.1278 15.9336 11.8528 15.9426 9.53463 15.9426C7.21625 15.9426 6.94149 15.9336 6.02623 15.892C5.17969 15.8529 4.72025 15.7115 4.41402 15.5926C4.00884 15.4353 3.71942 15.2471 3.41554 14.9433C3.11166 14.6394 2.92354 14.3507 2.76581 13.9453C2.64697 13.6397 2.50534 13.1802 2.46681 12.3337C2.42521 11.4184 2.41689 11.1435 2.41689 8.82496C2.41689 6.50642 2.42521 6.23293 2.46681 5.31767C2.50552 4.47115 2.64697 4.01171 2.76581 3.70566C2.92318 3.30049 3.11166 3.01108 3.41554 2.7072C3.71942 2.40332 4.00884 2.2152 4.41402 2.05747C4.72007 1.93809 5.17969 1.797 6.02623 1.75811C6.82717 1.72194 7.13757 1.71109 8.75575 1.70928V1.71145ZM14.1692 3.15307C13.594 3.15307 13.1273 3.6192 13.1273 4.19459C13.1273 4.76979 13.594 5.23646 14.1692 5.23646C14.7444 5.23646 15.2111 4.76979 15.2111 4.19459C15.2111 3.61939 14.7444 3.15307 14.1692 3.15307ZM9.53468 4.3704C7.07232 4.3704 5.07592 6.36679 5.07592 8.82912C5.07592 11.2915 7.07232 13.2869 9.53468 13.2869C11.997 13.2869 13.9927 11.2915 13.9927 8.82912C13.9927 6.36679 11.997 4.3704 9.53468 4.3704ZM9.53465 5.93502C11.1329 5.93502 12.4288 7.23067 12.4288 8.82912C12.4288 10.4274 11.1329 11.7232 9.53465 11.7232C7.93619 11.7232 6.64052 10.4274 6.64052 8.82912C6.64052 7.23067 7.93619 5.93502 9.53465 5.93502Z" fill="#E61A83"/>
</svg>
